<svg width="1034" height="521" viewBox="0 0 1034 521" fill="none" xmlns="http://www.w3.org/2000/svg">
<path d="M16.8359 26H15.6289V17.5742H5.62109V26H4.42578V8.86719H5.62109V16.4727H15.6289V8.86719H16.8359V26ZM36.1016 17.4102C36.1016 20.1289 35.4219 22.2812 34.0625 23.8672C32.7031 25.4453 30.8281 26.2344 28.4375 26.2344C26.0547 26.2344 24.1836 25.4453 22.8242 23.8672C21.4648 22.2812 20.7852 20.1211 20.7852 17.3867C20.7852 14.6602 21.4688 12.5156 22.8359 10.9531C24.2109 9.38281 26.0859 8.59766 28.4609 8.59766C30.8516 8.59766 32.7227 9.38672 34.0742 10.9648C35.4258 12.5352 36.1016 14.6836 36.1016 17.4102ZM22.0859 17.4102C22.0859 19.8633 22.6328 21.7617 23.7266 23.1055C24.8203 24.4414 26.3906 25.1094 28.4375 25.1094C30.5 25.1094 32.0742 24.4453 33.1602 23.1172C34.2539 21.7891 34.8008 19.8867 34.8008 17.4102C34.8008 14.9414 34.2539 13.0508 33.1602 11.7383C32.0742 10.418 30.5078 9.75781 28.4609 9.75781C26.4219 9.75781 24.8477 10.4219 23.7383 11.75C22.6367 13.0781 22.0859 14.9648 22.0859 17.4102ZM53.7031 26H52.7188L48.957 12.7812C48.6445 11.6953 48.4102 10.8047 48.2539 10.1094C48.1289 10.7891 47.9492 11.5703 47.7148 12.4531C47.4883 13.3359 46.2305 17.8516 43.9414 26H42.9336L38.2227 8.86719H39.4766L42.4766 19.9062C42.5938 20.3516 42.7031 20.7656 42.8047 21.1484C42.9062 21.5234 42.9961 21.8789 43.0742 22.2148C43.1602 22.543 43.2344 22.8633 43.2969 23.1758C43.3672 23.4805 43.4297 23.7891 43.4844 24.1016C43.6719 23.0391 44.0703 21.4258 44.6797 19.2617L47.6094 8.86719H48.9336L52.3672 20.7969C52.7656 22.1719 53.0508 23.2812 53.2227 24.125C53.3242 23.5625 53.4531 22.9648 53.6094 22.332C53.7734 21.6992 54.9805 17.2109 57.2305 8.86719H58.4375L53.7031 26ZM67.707 26V8.86719H68.9023V26H67.707ZM78.2188 26H77.0117V9.99219H71.4453V8.86719H83.7852V9.99219H78.2188V26ZM106.227 26H105.242L101.48 12.7812C101.168 11.6953 100.934 10.8047 100.777 10.1094C100.652 10.7891 100.473 11.5703 100.238 12.4531C100.012 13.3359 98.7539 17.8516 96.4648 26H95.457L90.7461 8.86719H92L95 19.9062C95.1172 20.3516 95.2266 20.7656 95.3281 21.1484C95.4297 21.5234 95.5195 21.8789 95.5977 22.2148C95.6836 22.543 95.7578 22.8633 95.8203 23.1758C95.8906 23.4805 95.9531 23.7891 96.0078 24.1016C96.1953 23.0391 96.5938 21.4258 97.2031 19.2617L100.133 8.86719H101.457L104.891 20.7969C105.289 22.1719 105.574 23.2812 105.746 24.125C105.848 23.5625 105.977 22.9648 106.133 22.332C106.297 21.6992 107.504 17.2109 109.754 8.86719H110.961L106.227 26ZM128.398 17.4102C128.398 20.1289 127.719 22.2812 126.359 23.8672C125 25.4453 123.125 26.2344 120.734 26.2344C118.352 26.2344 116.48 25.4453 115.121 23.8672C113.762 22.2812 113.082 20.1211 113.082 17.3867C113.082 14.6602 113.766 12.5156 115.133 10.9531C116.508 9.38281 118.383 8.59766 120.758 8.59766C123.148 8.59766 125.02 9.38672 126.371 10.9648C127.723 12.5352 128.398 14.6836 128.398 17.4102ZM114.383 17.4102C114.383 19.8633 114.93 21.7617 116.023 23.1055C117.117 24.4414 118.688 25.1094 120.734 25.1094C122.797 25.1094 124.371 24.4453 125.457 23.1172C126.551 21.7891 127.098 19.8867 127.098 17.4102C127.098 14.9414 126.551 13.0508 125.457 11.7383C124.371 10.418 122.805 9.75781 120.758 9.75781C118.719 9.75781 117.145 10.4219 116.035 11.75C114.934 13.0781 114.383 14.9648 114.383 17.4102ZM133.543 18.5352V26H132.348V8.86719H136.426C138.551 8.86719 140.121 9.26172 141.137 10.0508C142.152 10.832 142.66 12.0117 142.66 13.5898C142.66 14.7383 142.355 15.707 141.746 16.4961C141.145 17.2852 140.227 17.8516 138.992 18.1953L143.645 26H142.215L137.797 18.5352H133.543ZM133.543 17.5039H136.812C138.258 17.5039 139.379 17.1836 140.176 16.543C140.973 15.8945 141.371 14.9414 141.371 13.6836C141.371 12.3789 140.98 11.4297 140.199 10.8359C139.418 10.2422 138.145 9.94531 136.379 9.94531H133.543V17.5039ZM158.141 26H156.676L150.102 16.9531L147.816 18.9688V26H146.621V8.86719H147.816V17.7734L149.715 15.875L156.43 8.86719H157.953L150.934 16.1094L158.141 26ZM170.023 21.582C170.023 23.0117 169.496 24.1445 168.441 24.9805C167.395 25.8164 166 26.2344 164.258 26.2344C162.164 26.2344 160.559 26.0039 159.441 25.543V24.3477C160.676 24.8711 162.25 25.1328 164.164 25.1328C165.57 25.1328 166.684 24.8125 167.504 24.1719C168.332 23.5234 168.746 22.6758 168.746 21.6289C168.746 20.9805 168.609 20.4453 168.336 20.0234C168.062 19.5938 167.617 19.2031 167 18.8516C166.383 18.5 165.477 18.1211 164.281 17.7148C162.531 17.1133 161.32 16.4648 160.648 15.7695C159.984 15.0664 159.652 14.1328 159.652 12.9688C159.652 11.6875 160.152 10.6445 161.152 9.83984C162.16 9.02734 163.453 8.62109 165.031 8.62109C166.641 8.62109 168.152 8.92578 169.566 9.53516L169.133 10.5664C167.711 9.97266 166.352 9.67578 165.055 9.67578C163.789 9.67578 162.781 9.96875 162.031 10.5547C161.281 11.1406 160.906 11.9375 160.906 12.9453C160.906 13.5781 161.02 14.0977 161.246 14.5039C161.48 14.9102 161.859 15.2773 162.383 15.6055C162.906 15.9258 163.805 16.3125 165.078 16.7656C166.414 17.2266 167.418 17.6758 168.09 18.1133C168.762 18.543 169.25 19.0352 169.555 19.5898C169.867 20.1367 170.023 20.8008 170.023 21.582Z" fill="white"/>
<path d="M69.1832 269.948H72.8131C74.5181 269.948 75.7515 270.203 76.5133 270.713C77.275 271.222 77.6558 272.028 77.6558 273.13C77.6558 273.891 77.442 274.521 77.0142 275.019C76.5924 275.511 75.9742 275.831 75.1597 275.977V276.065C77.1109 276.399 78.0865 277.424 78.0865 279.141C78.0865 280.29 77.6969 281.186 76.9176 281.831C76.1441 282.475 75.0601 282.797 73.6656 282.797H69.1832V269.948ZM70.6773 275.45H73.1383C74.1929 275.45 74.9517 275.286 75.4146 274.958C75.8775 274.624 76.109 274.064 76.109 273.279C76.109 272.558 75.8512 272.04 75.3355 271.723C74.8199 271.401 73.9996 271.24 72.8746 271.24H70.6773V275.45ZM70.6773 276.715V281.523H73.358C74.3951 281.523 75.1744 281.324 75.6959 280.925C76.2232 280.521 76.4869 279.891 76.4869 279.036C76.4869 278.239 76.2174 277.653 75.6783 277.278C75.1451 276.903 74.3306 276.715 73.2349 276.715H70.6773ZM82.0943 282.797H80.6353V269.122H82.0943V282.797ZM93.5025 277.972C93.5025 279.543 93.107 280.77 92.316 281.655C91.525 282.534 90.4322 282.973 89.0377 282.973C88.1763 282.973 87.4117 282.771 86.7437 282.367C86.0758 281.963 85.5601 281.382 85.1969 280.627C84.8336 279.871 84.6519 278.986 84.6519 277.972C84.6519 276.402 85.0445 275.18 85.8297 274.307C86.6148 273.428 87.7047 272.989 89.0992 272.989C90.4469 272.989 91.5162 273.437 92.3072 274.334C93.1041 275.23 93.5025 276.443 93.5025 277.972ZM86.1637 277.972C86.1637 279.203 86.4097 280.14 86.9019 280.785C87.3941 281.429 88.1178 281.752 89.0728 281.752C90.0279 281.752 90.7515 281.432 91.2437 280.794C91.7418 280.149 91.9908 279.209 91.9908 277.972C91.9908 276.748 91.7418 275.819 91.2437 275.186C90.7515 274.547 90.022 274.228 89.0553 274.228C88.1002 274.228 87.3795 274.542 86.8931 275.169C86.4068 275.796 86.1637 276.73 86.1637 277.972ZM99.9185 282.973C98.524 282.973 97.4429 282.546 96.6754 281.69C95.9137 280.829 95.5328 279.613 95.5328 278.043C95.5328 276.431 95.9195 275.186 96.6929 274.307C97.4722 273.428 98.5797 272.989 100.015 272.989C100.478 272.989 100.941 273.039 101.404 273.138C101.867 273.238 102.23 273.355 102.494 273.49L102.045 274.729C101.723 274.6 101.372 274.495 100.991 274.413C100.61 274.325 100.273 274.281 99.9801 274.281C98.023 274.281 97.0445 275.529 97.0445 278.025C97.0445 279.209 97.2818 280.117 97.7564 280.75C98.2369 281.382 98.9459 281.699 99.8834 281.699C100.686 281.699 101.509 281.526 102.353 281.18V282.472C101.709 282.806 100.897 282.973 99.9185 282.973ZM106.088 277.867C106.34 277.509 106.724 277.041 107.24 276.461L110.351 273.165H112.083L108.18 277.269L112.355 282.797H110.588L107.187 278.245L106.088 279.194V282.797H104.647V269.122H106.088V276.373C106.088 276.695 106.065 277.193 106.018 277.867H106.088ZM117.954 282.973C116.559 282.973 115.478 282.546 114.711 281.69C113.949 280.829 113.568 279.613 113.568 278.043C113.568 276.431 113.955 275.186 114.728 274.307C115.507 273.428 116.615 272.989 118.05 272.989C118.513 272.989 118.976 273.039 119.439 273.138C119.902 273.238 120.265 273.355 120.529 273.49L120.081 274.729C119.758 274.6 119.407 274.495 119.026 274.413C118.645 274.325 118.308 274.281 118.015 274.281C116.058 274.281 115.08 275.529 115.08 278.025C115.08 279.209 115.317 280.117 115.792 280.75C116.272 281.382 116.981 281.699 117.919 281.699C118.721 281.699 119.545 281.526 120.388 281.18V282.472C119.744 282.806 118.932 282.973 117.954 282.973ZM129.274 282.797V276.566C129.274 275.781 129.095 275.195 128.738 274.808C128.38 274.422 127.821 274.228 127.059 274.228C126.045 274.228 125.304 274.504 124.836 275.054C124.373 275.605 124.141 276.507 124.141 277.761V282.797H122.682V269.122H124.141V273.261C124.141 273.759 124.118 274.172 124.071 274.501H124.159C124.446 274.038 124.853 273.674 125.38 273.411C125.914 273.141 126.52 273.006 127.2 273.006C128.378 273.006 129.259 273.288 129.845 273.85C130.437 274.407 130.733 275.295 130.733 276.513V282.797H129.274ZM139.663 282.797L139.373 281.426H139.302C138.822 282.03 138.341 282.44 137.861 282.657C137.386 282.868 136.792 282.973 136.077 282.973C135.122 282.973 134.372 282.727 133.827 282.235C133.288 281.743 133.018 281.043 133.018 280.134C133.018 278.189 134.574 277.17 137.685 277.076L139.32 277.023V276.425C139.32 275.67 139.156 275.113 138.828 274.755C138.505 274.392 137.987 274.211 137.272 274.211C136.469 274.211 135.561 274.457 134.547 274.949L134.099 273.833C134.574 273.575 135.092 273.373 135.655 273.226C136.223 273.08 136.792 273.006 137.36 273.006C138.508 273.006 139.358 273.261 139.909 273.771C140.465 274.281 140.744 275.098 140.744 276.223V282.797H139.663ZM136.367 281.769C137.275 281.769 137.987 281.52 138.503 281.022C139.024 280.524 139.285 279.827 139.285 278.93V278.06L137.826 278.122C136.666 278.163 135.828 278.344 135.312 278.667C134.802 278.983 134.547 279.478 134.547 280.152C134.547 280.679 134.706 281.081 135.022 281.356C135.344 281.631 135.793 281.769 136.367 281.769ZM145.217 282.797H143.758V273.165H145.217V282.797ZM143.635 270.554C143.635 270.22 143.717 269.977 143.881 269.825C144.045 269.667 144.251 269.588 144.497 269.588C144.731 269.588 144.933 269.667 145.103 269.825C145.273 269.983 145.358 270.226 145.358 270.554C145.358 270.882 145.273 271.129 145.103 271.293C144.933 271.451 144.731 271.53 144.497 271.53C144.251 271.53 144.045 271.451 143.881 271.293C143.717 271.129 143.635 270.882 143.635 270.554ZM154.903 282.797V276.566C154.903 275.781 154.724 275.195 154.367 274.808C154.009 274.422 153.45 274.228 152.688 274.228C151.68 274.228 150.942 274.501 150.473 275.046C150.004 275.59 149.77 276.49 149.77 277.744V282.797H148.311V273.165H149.498L149.735 274.483H149.805C150.104 274.008 150.523 273.642 151.062 273.384C151.601 273.121 152.202 272.989 152.864 272.989C154.024 272.989 154.897 273.27 155.483 273.833C156.069 274.389 156.362 275.283 156.362 276.513V282.797H154.903ZM172.34 282.797L170.741 278.711H165.59L164.008 282.797H162.497L167.577 269.895H168.834L173.887 282.797H172.34ZM170.275 277.366L168.781 273.384C168.587 272.88 168.388 272.262 168.183 271.53C168.054 272.092 167.87 272.711 167.629 273.384L166.118 277.366H170.275Z" fill="white"/>
<path d="M37.2361 321.833L33.3611 311.708H33.2986C33.3715 312.51 33.408 313.463 33.408 314.567V321.833H32.1814V310.411H34.1814L37.7986 319.833H37.8611L41.5095 310.411H43.4939V321.833H42.1658V314.473C42.1658 313.63 42.2022 312.713 42.2751 311.723H42.2126L38.3064 321.833H37.2361ZM47.7361 321.833H46.4392V313.27H47.7361V321.833ZM46.3298 310.95C46.3298 310.653 46.4028 310.437 46.5486 310.301C46.6944 310.161 46.8767 310.09 47.0955 310.09C47.3038 310.09 47.4835 310.161 47.6345 310.301C47.7856 310.442 47.8611 310.658 47.8611 310.95C47.8611 311.241 47.7856 311.46 47.6345 311.606C47.4835 311.747 47.3038 311.817 47.0955 311.817C46.8767 311.817 46.6944 311.747 46.5486 311.606C46.4028 311.46 46.3298 311.241 46.3298 310.95ZM56.3455 321.833V316.294C56.3455 315.596 56.1866 315.075 55.8689 314.731C55.5512 314.387 55.0538 314.215 54.3767 314.215C53.4809 314.215 52.8246 314.458 52.408 314.942C51.9913 315.426 51.783 316.226 51.783 317.34V321.833H50.4861V313.27H51.5408L51.7517 314.442H51.8142C52.0798 314.02 52.4522 313.695 52.9314 313.465C53.4106 313.231 53.9444 313.114 54.533 313.114C55.5642 313.114 56.3403 313.364 56.8611 313.864C57.3819 314.359 57.6423 315.153 57.6423 316.247V321.833H56.3455ZM63.0798 320.919C63.309 320.919 63.5304 320.903 63.7439 320.872C63.9574 320.835 64.1267 320.799 64.2517 320.762V321.755C64.1111 321.822 63.9028 321.877 63.6267 321.919C63.3559 321.965 63.1111 321.989 62.8923 321.989C61.2361 321.989 60.408 321.116 60.408 319.372V314.278H59.1814V313.653L60.408 313.114L60.9548 311.286H61.7048V313.27H64.1892V314.278H61.7048V319.317C61.7048 319.833 61.8272 320.228 62.072 320.505C62.3168 320.781 62.6528 320.919 63.0798 320.919ZM79.2439 321.833H77.7283L71.4861 312.247H71.4236C71.5069 313.372 71.5486 314.403 71.5486 315.34V321.833H70.322V310.411H71.822L78.0486 319.958H78.1111C78.1007 319.817 78.0772 319.366 78.0408 318.606C78.0043 317.84 77.9913 317.294 78.0017 316.965V310.411H79.2439V321.833ZM83.7126 321.833H82.3845V310.411H88.7517V311.59H83.7126V315.77H88.447V316.95H83.7126V321.833ZM94.1658 321.833H92.8376V311.59H89.2205V310.411H97.783V311.59H94.1658V321.833Z" fill="white"/>
<rect x="2" y="212.504" width="302.941" height="175.865" rx="20" stroke="url(#paint0_linear)" stroke-width="3" stroke-linejoin="round" stroke-dasharray="3 3"/>
<path d="M796.101 269.948H799.731C801.436 269.948 802.67 270.203 803.431 270.713C804.193 271.222 804.574 272.028 804.574 273.13C804.574 273.891 804.36 274.521 803.932 275.019C803.511 275.511 802.892 275.831 802.078 275.977V276.065C804.029 276.399 805.005 277.424 805.005 279.141C805.005 280.29 804.615 281.186 803.836 281.831C803.062 282.475 801.978 282.797 800.584 282.797H796.101V269.948ZM797.596 275.45H800.056C801.111 275.45 801.87 275.286 802.333 274.958C802.796 274.624 803.027 274.064 803.027 273.279C803.027 272.558 802.769 272.04 802.254 271.723C801.738 271.401 800.918 271.24 799.793 271.24H797.596V275.45ZM797.596 276.715V281.523H800.276C801.313 281.523 802.093 281.324 802.614 280.925C803.141 280.521 803.405 279.891 803.405 279.036C803.405 278.239 803.136 277.653 802.597 277.278C802.063 276.903 801.249 276.715 800.153 276.715H797.596ZM809.013 282.797H807.554V269.122H809.013V282.797ZM820.421 277.972C820.421 279.543 820.025 280.77 819.234 281.655C818.443 282.534 817.35 282.973 815.956 282.973C815.095 282.973 814.33 282.771 813.662 282.367C812.994 281.963 812.478 281.382 812.115 280.627C811.752 279.871 811.57 278.986 811.57 277.972C811.57 276.402 811.963 275.18 812.748 274.307C813.533 273.428 814.623 272.989 816.017 272.989C817.365 272.989 818.434 273.437 819.225 274.334C820.022 275.23 820.421 276.443 820.421 277.972ZM813.082 277.972C813.082 279.203 813.328 280.14 813.82 280.785C814.312 281.429 815.036 281.752 815.991 281.752C816.946 281.752 817.67 281.432 818.162 280.794C818.66 280.149 818.909 279.209 818.909 277.972C818.909 276.748 818.66 275.819 818.162 275.186C817.67 274.547 816.94 274.228 815.973 274.228C815.018 274.228 814.298 274.542 813.811 275.169C813.325 275.796 813.082 276.73 813.082 277.972ZM826.837 282.973C825.442 282.973 824.361 282.546 823.594 281.69C822.832 280.829 822.451 279.613 822.451 278.043C822.451 276.431 822.838 275.186 823.611 274.307C824.39 273.428 825.498 272.989 826.933 272.989C827.396 272.989 827.859 273.039 828.322 273.138C828.785 273.238 829.148 273.355 829.412 273.49L828.964 274.729C828.641 274.6 828.29 274.495 827.909 274.413C827.528 274.325 827.191 274.281 826.898 274.281C824.941 274.281 823.963 275.529 823.963 278.025C823.963 279.209 824.2 280.117 824.675 280.75C825.155 281.382 825.864 281.699 826.802 281.699C827.604 281.699 828.428 281.526 829.271 281.18V282.472C828.627 282.806 827.815 282.973 826.837 282.973ZM833.007 277.867C833.259 277.509 833.642 277.041 834.158 276.461L837.269 273.165H839.001L835.098 277.269L839.273 282.797H837.507L834.105 278.245L833.007 279.194V282.797H831.565V269.122H833.007V276.373C833.007 276.695 832.983 277.193 832.936 277.867H833.007ZM844.872 282.973C843.477 282.973 842.396 282.546 841.629 281.69C840.867 280.829 840.486 279.613 840.486 278.043C840.486 276.431 840.873 275.186 841.646 274.307C842.426 273.428 843.533 272.989 844.969 272.989C845.431 272.989 845.894 273.039 846.357 273.138C846.82 273.238 847.183 273.355 847.447 273.49L846.999 274.729C846.677 274.6 846.325 274.495 845.944 274.413C845.563 274.325 845.226 274.281 844.933 274.281C842.976 274.281 841.998 275.529 841.998 278.025C841.998 279.209 842.235 280.117 842.71 280.75C843.19 281.382 843.899 281.699 844.837 281.699C845.639 281.699 846.463 281.526 847.306 281.18V282.472C846.662 282.806 845.85 282.973 844.872 282.973ZM856.192 282.797V276.566C856.192 275.781 856.014 275.195 855.656 274.808C855.299 274.422 854.739 274.228 853.977 274.228C852.964 274.228 852.222 274.504 851.754 275.054C851.291 275.605 851.059 276.507 851.059 277.761V282.797H849.6V269.122H851.059V273.261C851.059 273.759 851.036 274.172 850.989 274.501H851.077C851.364 274.038 851.771 273.674 852.299 273.411C852.832 273.141 853.438 273.006 854.118 273.006C855.296 273.006 856.178 273.288 856.764 273.85C857.355 274.407 857.651 275.295 857.651 276.513V282.797H856.192ZM866.581 282.797L866.291 281.426H866.221C865.74 282.03 865.26 282.44 864.779 282.657C864.305 282.868 863.71 282.973 862.995 282.973C862.04 282.973 861.29 282.727 860.745 282.235C860.206 281.743 859.936 281.043 859.936 280.134C859.936 278.189 861.492 277.17 864.603 277.076L866.238 277.023V276.425C866.238 275.67 866.074 275.113 865.746 274.755C865.424 274.392 864.905 274.211 864.19 274.211C863.388 274.211 862.479 274.457 861.466 274.949L861.017 273.833C861.492 273.575 862.011 273.373 862.573 273.226C863.141 273.08 863.71 273.006 864.278 273.006C865.427 273.006 866.276 273.261 866.827 273.771C867.384 274.281 867.662 275.098 867.662 276.223V282.797H866.581ZM863.285 281.769C864.193 281.769 864.905 281.52 865.421 281.022C865.942 280.524 866.203 279.827 866.203 278.93V278.06L864.744 278.122C863.584 278.163 862.746 278.344 862.23 278.667C861.721 278.983 861.466 279.478 861.466 280.152C861.466 280.679 861.624 281.081 861.94 281.356C862.263 281.631 862.711 281.769 863.285 281.769ZM872.136 282.797H870.677V273.165H872.136V282.797ZM870.554 270.554C870.554 270.22 870.636 269.977 870.8 269.825C870.964 269.667 871.169 269.588 871.415 269.588C871.649 269.588 871.851 269.667 872.021 269.825C872.191 269.983 872.276 270.226 872.276 270.554C872.276 270.882 872.191 271.129 872.021 271.293C871.851 271.451 871.649 271.53 871.415 271.53C871.169 271.53 870.964 271.451 870.8 271.293C870.636 271.129 870.554 270.882 870.554 270.554ZM881.821 282.797V276.566C881.821 275.781 881.642 275.195 881.285 274.808C880.928 274.422 880.368 274.228 879.606 274.228C878.598 274.228 877.86 274.501 877.391 275.046C876.923 275.59 876.688 276.49 876.688 277.744V282.797H875.229V273.165H876.416L876.653 274.483H876.723C877.022 274.008 877.441 273.642 877.98 273.384C878.519 273.121 879.12 272.989 879.782 272.989C880.942 272.989 881.815 273.27 882.401 273.833C882.987 274.389 883.28 275.283 883.28 276.513V282.797H881.821ZM891.181 269.948H894.811C896.516 269.948 897.75 270.203 898.512 270.713C899.273 271.222 899.654 272.028 899.654 273.13C899.654 273.891 899.44 274.521 899.013 275.019C898.591 275.511 897.972 275.831 897.158 275.977V276.065C899.109 276.399 900.085 277.424 900.085 279.141C900.085 280.29 899.695 281.186 898.916 281.831C898.142 282.475 897.058 282.797 895.664 282.797H891.181V269.948ZM892.676 275.45H895.137C896.191 275.45 896.95 275.286 897.413 274.958C897.876 274.624 898.107 274.064 898.107 273.279C898.107 272.558 897.849 272.04 897.334 271.723C896.818 271.401 895.998 271.24 894.873 271.24H892.676V275.45ZM892.676 276.715V281.523H895.356C896.393 281.523 897.173 281.324 897.694 280.925C898.222 280.521 898.485 279.891 898.485 279.036C898.485 278.239 898.216 277.653 897.677 277.278C897.143 276.903 896.329 276.715 895.233 276.715H892.676Z" fill="white"/>
<path d="M765.686 318.794C765.686 319.799 765.321 320.583 764.592 321.145C763.863 321.708 762.873 321.989 761.623 321.989C760.269 321.989 759.227 321.814 758.498 321.465V320.184C758.967 320.382 759.477 320.538 760.029 320.653C760.581 320.768 761.128 320.825 761.67 320.825C762.555 320.825 763.222 320.658 763.67 320.325C764.118 319.986 764.342 319.518 764.342 318.919C764.342 318.523 764.261 318.2 764.1 317.95C763.943 317.695 763.678 317.46 763.303 317.247C762.933 317.033 762.368 316.791 761.607 316.52C760.545 316.14 759.785 315.689 759.326 315.169C758.873 314.648 758.646 313.968 758.646 313.13C758.646 312.249 758.977 311.549 759.639 311.028C760.3 310.507 761.175 310.247 762.264 310.247C763.399 310.247 764.443 310.455 765.396 310.872L764.982 312.028C764.04 311.632 763.123 311.434 762.232 311.434C761.529 311.434 760.98 311.585 760.584 311.887C760.188 312.189 759.99 312.609 759.99 313.145C759.99 313.541 760.063 313.866 760.209 314.122C760.355 314.372 760.6 314.603 760.943 314.817C761.292 315.025 761.824 315.257 762.537 315.512C763.735 315.939 764.558 316.398 765.006 316.887C765.459 317.377 765.686 318.012 765.686 318.794ZM770.592 320.919C770.821 320.919 771.042 320.903 771.256 320.872C771.469 320.835 771.639 320.799 771.764 320.762V321.755C771.623 321.822 771.415 321.877 771.139 321.919C770.868 321.965 770.623 321.989 770.404 321.989C768.748 321.989 767.92 321.116 767.92 319.372V314.278H766.693V313.653L767.92 313.114L768.467 311.286H769.217V313.27H771.701V314.278H769.217V319.317C769.217 319.833 769.339 320.228 769.584 320.505C769.829 320.781 770.165 320.919 770.592 320.919ZM778.748 321.833L778.49 320.614H778.428C778.001 321.15 777.574 321.515 777.146 321.708C776.725 321.895 776.196 321.989 775.561 321.989C774.712 321.989 774.045 321.77 773.561 321.333C773.081 320.895 772.842 320.273 772.842 319.465C772.842 317.736 774.225 316.83 776.99 316.747L778.443 316.7V316.169C778.443 315.497 778.298 315.002 778.006 314.684C777.719 314.361 777.258 314.2 776.623 314.2C775.91 314.2 775.102 314.419 774.201 314.856L773.803 313.864C774.225 313.635 774.686 313.455 775.186 313.325C775.691 313.195 776.196 313.13 776.701 313.13C777.722 313.13 778.477 313.356 778.967 313.809C779.462 314.262 779.709 314.989 779.709 315.989V321.833H778.748ZM775.818 320.919C776.626 320.919 777.258 320.697 777.717 320.255C778.18 319.812 778.412 319.192 778.412 318.395V317.622L777.115 317.676C776.084 317.713 775.339 317.874 774.881 318.161C774.428 318.442 774.201 318.882 774.201 319.481C774.201 319.95 774.342 320.307 774.623 320.551C774.91 320.796 775.308 320.919 775.818 320.919ZM783.67 317.45C783.894 317.132 784.235 316.715 784.693 316.2L787.459 313.27H788.998L785.529 316.919L789.24 321.833H787.67L784.646 317.786L783.67 318.63V321.833H782.389V309.676H783.67V316.122C783.67 316.408 783.649 316.851 783.607 317.45H783.67ZM794.412 321.989C793.146 321.989 792.146 321.603 791.412 320.833C790.683 320.062 790.318 318.991 790.318 317.622C790.318 316.241 790.657 315.145 791.334 314.333C792.016 313.52 792.93 313.114 794.076 313.114C795.149 313.114 795.998 313.468 796.623 314.176C797.248 314.88 797.561 315.809 797.561 316.965V317.786H791.662C791.688 318.791 791.941 319.554 792.42 320.075C792.904 320.596 793.584 320.856 794.459 320.856C795.381 320.856 796.292 320.663 797.193 320.278V321.434C796.735 321.632 796.3 321.773 795.889 321.856C795.482 321.945 794.99 321.989 794.412 321.989ZM794.061 314.2C793.373 314.2 792.824 314.424 792.412 314.872C792.006 315.32 791.766 315.939 791.693 316.731H796.17C796.17 315.913 795.988 315.288 795.623 314.856C795.258 314.419 794.738 314.2 794.061 314.2ZM805.811 321.833L802.561 313.27H803.951L805.795 318.348C806.212 319.536 806.456 320.307 806.529 320.661H806.592C806.649 320.385 806.829 319.814 807.131 318.95C807.438 318.08 808.123 316.187 809.186 313.27H810.576L807.326 321.833H805.811ZM819.342 317.544C819.342 318.939 818.99 320.031 818.287 320.817C817.584 321.598 816.613 321.989 815.373 321.989C814.607 321.989 813.928 321.809 813.334 321.45C812.74 321.09 812.282 320.575 811.959 319.903C811.636 319.231 811.475 318.445 811.475 317.544C811.475 316.148 811.824 315.062 812.521 314.286C813.219 313.505 814.188 313.114 815.428 313.114C816.626 313.114 817.576 313.512 818.279 314.309C818.988 315.106 819.342 316.184 819.342 317.544ZM812.818 317.544C812.818 318.637 813.037 319.471 813.475 320.044C813.912 320.616 814.555 320.903 815.404 320.903C816.253 320.903 816.896 320.619 817.334 320.051C817.777 319.478 817.998 318.643 817.998 317.544C817.998 316.455 817.777 315.63 817.334 315.067C816.896 314.499 816.248 314.215 815.389 314.215C814.54 314.215 813.899 314.494 813.467 315.051C813.035 315.609 812.818 316.439 812.818 317.544ZM822.842 313.27V318.825C822.842 319.523 823.001 320.044 823.318 320.387C823.636 320.731 824.133 320.903 824.811 320.903C825.706 320.903 826.36 320.658 826.771 320.169C827.188 319.679 827.396 318.88 827.396 317.77V313.27H828.693V321.833H827.623L827.436 320.684H827.365C827.1 321.106 826.73 321.429 826.256 321.653C825.787 321.877 825.251 321.989 824.646 321.989C823.605 321.989 822.824 321.741 822.303 321.247C821.787 320.752 821.529 319.96 821.529 318.872V313.27H822.842ZM834.873 321.989C833.633 321.989 832.673 321.609 831.99 320.848C831.313 320.083 830.975 319.002 830.975 317.606C830.975 316.174 831.318 315.067 832.006 314.286C832.699 313.505 833.683 313.114 834.959 313.114C835.37 313.114 835.782 313.158 836.193 313.247C836.605 313.335 836.928 313.439 837.162 313.559L836.764 314.661C836.477 314.546 836.165 314.452 835.826 314.38C835.488 314.301 835.188 314.262 834.928 314.262C833.188 314.262 832.318 315.372 832.318 317.59C832.318 318.643 832.529 319.45 832.951 320.012C833.378 320.575 834.008 320.856 834.842 320.856C835.555 320.856 836.287 320.702 837.037 320.395V321.544C836.464 321.84 835.743 321.989 834.873 321.989ZM844.936 321.833V316.294C844.936 315.596 844.777 315.075 844.459 314.731C844.141 314.387 843.644 314.215 842.967 314.215C842.066 314.215 841.407 314.46 840.99 314.95C840.579 315.439 840.373 316.241 840.373 317.356V321.833H839.076V309.676H840.373V313.356C840.373 313.799 840.352 314.166 840.311 314.458H840.389C840.644 314.046 841.006 313.723 841.475 313.489C841.949 313.249 842.488 313.13 843.092 313.13C844.139 313.13 844.923 313.38 845.443 313.88C845.969 314.374 846.232 315.163 846.232 316.247V321.833H844.936ZM852.521 321.989C851.256 321.989 850.256 321.603 849.521 320.833C848.792 320.062 848.428 318.991 848.428 317.622C848.428 316.241 848.766 315.145 849.443 314.333C850.126 313.52 851.04 313.114 852.186 313.114C853.258 313.114 854.107 313.468 854.732 314.176C855.357 314.88 855.67 315.809 855.67 316.965V317.786H849.771C849.798 318.791 850.05 319.554 850.529 320.075C851.014 320.596 851.693 320.856 852.568 320.856C853.49 320.856 854.402 320.663 855.303 320.278V321.434C854.844 321.632 854.41 321.773 853.998 321.856C853.592 321.945 853.1 321.989 852.521 321.989ZM852.17 314.2C851.482 314.2 850.933 314.424 850.521 314.872C850.115 315.32 849.876 315.939 849.803 316.731H854.279C854.279 315.913 854.097 315.288 853.732 314.856C853.368 314.419 852.847 314.2 852.17 314.2ZM861.795 313.114C862.175 313.114 862.516 313.145 862.818 313.208L862.639 314.411C862.285 314.333 861.972 314.294 861.701 314.294C861.008 314.294 860.415 314.575 859.92 315.137C859.43 315.7 859.186 316.4 859.186 317.239V321.833H857.889V313.27H858.959L859.107 314.856H859.17C859.488 314.299 859.87 313.869 860.318 313.567C860.766 313.265 861.258 313.114 861.795 313.114Z" fill="white"/>
<rect x="729.059" y="212.504" width="302.941" height="175.865" rx="20" stroke="url(#paint1_linear)" stroke-width="3" stroke-linejoin="round" stroke-dasharray="3 3"/>
<path d="M329.833 300.082C329.637 300.278 329.637 300.594 329.833 300.79L333.015 303.972C333.21 304.167 333.527 304.167 333.722 303.972C333.917 303.776 333.917 303.46 333.722 303.264L330.893 300.436L333.722 297.608C333.917 297.412 333.917 297.096 333.722 296.901C333.527 296.705 333.21 296.705 333.015 296.901L329.833 300.082ZM704.167 300.79C704.363 300.594 704.363 300.278 704.167 300.082L700.985 296.9C700.79 296.705 700.473 296.705 700.278 296.9C700.083 297.096 700.083 297.412 700.278 297.608L703.107 300.436L700.278 303.264C700.083 303.46 700.083 303.776 700.278 303.972C700.473 304.167 700.79 304.167 700.985 303.972L704.167 300.79ZM330.186 300.936L703.814 300.936L703.814 299.936L330.186 299.936L330.186 300.936Z" fill="white"/>
<path d="M503.898 272.539V259.689H505.392V272.539H503.898ZM508.925 259.689H512.555C514.26 259.689 515.493 259.944 516.255 260.454C517.017 260.964 517.398 261.769 517.398 262.871C517.398 263.632 517.184 264.262 516.756 264.76C516.334 265.253 515.716 265.572 514.902 265.718V265.806C516.853 266.14 517.828 267.166 517.828 268.882C517.828 270.031 517.439 270.927 516.659 271.572C515.886 272.216 514.802 272.539 513.408 272.539H508.925V259.689ZM510.419 265.191H512.88C513.935 265.191 514.694 265.027 515.157 264.699C515.619 264.365 515.851 263.805 515.851 263.02C515.851 262.299 515.593 261.781 515.077 261.464C514.562 261.142 513.741 260.981 512.616 260.981H510.419V265.191ZM510.419 266.457V271.264H513.1C514.137 271.264 514.916 271.065 515.438 270.667C515.965 270.262 516.229 269.632 516.229 268.777C516.229 267.98 515.959 267.394 515.42 267.019C514.887 266.644 514.073 266.457 512.977 266.457H510.419ZM526.099 260.84C524.687 260.84 523.571 261.312 522.75 262.255C521.936 263.193 521.529 264.479 521.529 266.114C521.529 267.796 521.921 269.096 522.706 270.016C523.497 270.93 524.622 271.387 526.081 271.387C526.978 271.387 528 271.226 529.149 270.904V272.214C528.258 272.547 527.159 272.714 525.853 272.714C523.96 272.714 522.498 272.14 521.467 270.992C520.442 269.843 519.929 268.212 519.929 266.096C519.929 264.772 520.175 263.612 520.667 262.616C521.165 261.62 521.88 260.852 522.812 260.313C523.749 259.774 524.851 259.505 526.116 259.505C527.464 259.505 528.642 259.751 529.65 260.243L529.017 261.526C528.044 261.069 527.072 260.84 526.099 260.84Z" fill="white"/>
<path d="M470.227 96.7344C470.227 97.5312 469.93 98.1458 469.336 98.5781C468.742 99.0104 467.909 99.2266 466.836 99.2266C465.701 99.2266 464.815 99.0469 464.18 98.6875V97.4844C464.591 97.6927 465.031 97.8568 465.5 97.9766C465.974 98.0964 466.43 98.1562 466.867 98.1562C467.544 98.1562 468.065 98.0495 468.43 97.8359C468.794 97.6172 468.977 97.2865 468.977 96.8438C468.977 96.5104 468.831 96.2266 468.539 95.9922C468.253 95.7526 467.69 95.4714 466.852 95.1484C466.055 94.8516 465.487 94.5938 465.148 94.375C464.815 94.151 464.565 93.8984 464.398 93.6172C464.237 93.3359 464.156 93 464.156 92.6094C464.156 91.9115 464.44 91.362 465.008 90.9609C465.576 90.5547 466.354 90.3516 467.344 90.3516C468.266 90.3516 469.167 90.5391 470.047 90.9141L469.586 91.9688C468.727 91.6146 467.948 91.4375 467.25 91.4375C466.635 91.4375 466.172 91.5339 465.859 91.7266C465.547 91.9193 465.391 92.1849 465.391 92.5234C465.391 92.7526 465.448 92.9479 465.563 93.1094C465.682 93.2708 465.872 93.4245 466.133 93.5703C466.393 93.7161 466.893 93.9271 467.633 94.2031C468.648 94.5729 469.333 94.9453 469.688 95.3203C470.047 95.6953 470.227 96.1667 470.227 96.7344ZM475.961 99.2266C474.695 99.2266 473.695 98.8411 472.961 98.0703C472.232 97.2995 471.867 96.2292 471.867 94.8594C471.867 93.4792 472.206 92.3828 472.883 91.5703C473.565 90.7578 474.479 90.3516 475.625 90.3516C476.698 90.3516 477.547 90.7057 478.172 91.4141C478.797 92.1172 479.109 93.0469 479.109 94.2031V95.0234H473.211C473.237 96.0286 473.49 96.7917 473.969 97.3125C474.453 97.8333 475.133 98.0938 476.008 98.0938C476.93 98.0938 477.841 97.901 478.742 97.5156V98.6719C478.284 98.8698 477.849 99.0104 477.438 99.0938C477.031 99.1823 476.539 99.2266 475.961 99.2266ZM475.609 91.4375C474.922 91.4375 474.372 91.6615 473.961 92.1094C473.555 92.5573 473.315 93.1771 473.242 93.9688H477.719C477.719 93.151 477.536 92.526 477.172 92.0938C476.807 91.6562 476.286 91.4375 475.609 91.4375ZM487.188 99.0703V93.5312C487.188 92.8333 487.029 92.3125 486.711 91.9688C486.393 91.625 485.896 91.4531 485.219 91.4531C484.323 91.4531 483.667 91.6953 483.25 92.1797C482.833 92.6641 482.625 93.4635 482.625 94.5781V99.0703H481.328V90.5078H482.383L482.594 91.6797H482.656C482.922 91.2578 483.294 90.9323 483.773 90.7031C484.253 90.4688 484.786 90.3516 485.375 90.3516C486.406 90.3516 487.182 90.6016 487.703 91.1016C488.224 91.5964 488.484 92.3906 488.484 93.4844V99.0703H487.188ZM496.984 97.9219H496.914C496.315 98.7917 495.419 99.2266 494.227 99.2266C493.107 99.2266 492.234 98.8438 491.609 98.0781C490.99 97.3125 490.68 96.224 490.68 94.8125C490.68 93.401 490.992 92.3047 491.617 91.5234C492.242 90.7422 493.112 90.3516 494.227 90.3516C495.388 90.3516 496.279 90.7734 496.898 91.6172H497L496.945 91L496.914 90.3984V86.9141H498.211V99.0703H497.156L496.984 97.9219ZM494.391 98.1406C495.276 98.1406 495.917 97.901 496.313 97.4219C496.714 96.9375 496.914 96.1589 496.914 95.0859V94.8125C496.914 93.599 496.711 92.7344 496.305 92.2188C495.904 91.6979 495.26 91.4375 494.375 91.4375C493.615 91.4375 493.031 91.7344 492.625 92.3281C492.224 92.9167 492.023 93.75 492.023 94.8281C492.023 95.9219 492.224 96.7474 492.625 97.3047C493.026 97.862 493.615 98.1406 494.391 98.1406ZM514.242 99.0703H512.727L506.484 89.4844H506.422C506.505 90.6094 506.547 91.6406 506.547 92.5781V99.0703H505.32V87.6484H506.82L513.047 97.1953H513.109C513.099 97.0547 513.076 96.6042 513.039 95.8438C513.003 95.0781 512.99 94.5312 513 94.2031V87.6484H514.242V99.0703ZM518.711 99.0703H517.383V87.6484H523.75V88.8281H518.711V93.0078H523.445V94.1875H518.711V99.0703ZM529.164 99.0703H527.836V88.8281H524.219V87.6484H532.781V88.8281H529.164V99.0703ZM539.766 99.0703H538.469V90.5078H539.766V99.0703ZM538.359 88.1875C538.359 87.8906 538.432 87.6745 538.578 87.5391C538.724 87.3984 538.906 87.3281 539.125 87.3281C539.333 87.3281 539.513 87.3984 539.664 87.5391C539.815 87.6797 539.891 87.8958 539.891 88.1875C539.891 88.4792 539.815 88.6979 539.664 88.8438C539.513 88.9844 539.333 89.0547 539.125 89.0547C538.906 89.0547 538.724 88.9844 538.578 88.8438C538.432 88.6979 538.359 88.4792 538.359 88.1875ZM545.281 98.1562C545.51 98.1562 545.732 98.1406 545.945 98.1094C546.159 98.0729 546.328 98.0365 546.453 98V98.9922C546.313 99.0599 546.104 99.1146 545.828 99.1562C545.557 99.2031 545.313 99.2266 545.094 99.2266C543.438 99.2266 542.609 98.3542 542.609 96.6094V91.5156H541.383V90.8906L542.609 90.3516L543.156 88.5234H543.906V90.5078H546.391V91.5156H543.906V96.5547C543.906 97.0703 544.029 97.4661 544.273 97.7422C544.518 98.0182 544.854 98.1562 545.281 98.1562ZM551.789 99.2266C550.523 99.2266 549.523 98.8411 548.789 98.0703C548.06 97.2995 547.695 96.2292 547.695 94.8594C547.695 93.4792 548.034 92.3828 548.711 91.5703C549.393 90.7578 550.307 90.3516 551.453 90.3516C552.526 90.3516 553.375 90.7057 554 91.4141C554.625 92.1172 554.938 93.0469 554.938 94.2031V95.0234H549.039C549.065 96.0286 549.318 96.7917 549.797 97.3125C550.281 97.8333 550.961 98.0938 551.836 98.0938C552.758 98.0938 553.669 97.901 554.57 97.5156V98.6719C554.112 98.8698 553.677 99.0104 553.266 99.0938C552.859 99.1823 552.367 99.2266 551.789 99.2266ZM551.438 91.4375C550.75 91.4375 550.201 91.6615 549.789 92.1094C549.383 92.5573 549.143 93.1771 549.07 93.9688H553.547C553.547 93.151 553.365 92.526 553 92.0938C552.635 91.6562 552.115 91.4375 551.438 91.4375ZM568.07 99.0703V93.5C568.07 92.8177 567.925 92.3073 567.633 91.9688C567.341 91.625 566.888 91.4531 566.273 91.4531C565.466 91.4531 564.87 91.6849 564.484 92.1484C564.099 92.612 563.906 93.3255 563.906 94.2891V99.0703H562.609V93.5C562.609 92.8177 562.464 92.3073 562.172 91.9688C561.88 91.625 561.425 91.4531 560.805 91.4531C559.992 91.4531 559.396 91.6979 559.016 92.1875C558.641 92.6719 558.453 93.4688 558.453 94.5781V99.0703H557.156V90.5078H558.211L558.422 91.6797H558.484C558.729 91.263 559.073 90.9375 559.516 90.7031C559.964 90.4688 560.464 90.3516 561.016 90.3516C562.354 90.3516 563.229 90.8359 563.641 91.8047H563.703C563.958 91.3568 564.328 91.0026 564.813 90.7422C565.297 90.4818 565.849 90.3516 566.469 90.3516C567.438 90.3516 568.161 90.6016 568.641 91.1016C569.125 91.5964 569.367 92.3906 569.367 93.4844V99.0703H568.07Z" fill="white"/>
<path d="M148.422 131.166V130.666H147.922V131.166H148.422ZM874.639 131.166H875.139V130.666H874.639V131.166ZM874.285 190.141C874.481 190.336 874.797 190.336 874.992 190.141L878.174 186.959C878.37 186.764 878.37 186.447 878.174 186.252C877.979 186.057 877.663 186.057 877.467 186.252L874.639 189.081L871.81 186.252C871.615 186.057 871.299 186.057 871.103 186.252C870.908 186.447 870.908 186.764 871.103 186.959L874.285 190.141ZM148.922 189.788V189.299H147.922V189.788H148.922ZM148.922 184.414V183.437H147.922V184.414H148.922ZM148.922 178.552V177.575H147.922V178.552H148.922ZM148.922 172.69V171.713H147.922V172.69H148.922ZM148.922 166.827V165.85H147.922V166.827H148.922ZM148.922 160.965V159.988H147.922V160.965H148.922ZM148.922 155.103V154.126H147.922V155.103H148.922ZM148.922 149.241V148.264H147.922V149.241H148.922ZM148.922 143.379V142.402H147.922V143.379H148.922ZM148.922 137.517V136.54H147.922V137.517H148.922ZM148.922 131.654V131.166H147.922V131.654H148.922ZM148.422 131.666H148.922V130.666H148.422V131.666ZM153.923 131.666H154.923V130.666H153.923V131.666ZM159.925 131.666H160.925V130.666H159.925V131.666ZM165.927 131.666H166.927V130.666H165.927V131.666ZM171.929 131.666H172.929V130.666H171.929V131.666ZM177.93 131.666H178.931V130.666H177.93V131.666ZM183.932 131.666H184.932V130.666H183.932V131.666ZM189.934 131.666H190.934V130.666H189.934V131.666ZM195.936 131.666H196.936V130.666H195.936V131.666ZM201.938 131.666H202.938V130.666H201.938V131.666ZM207.939 131.666H208.94V130.666H207.939V131.666ZM213.941 131.666H214.941V130.666H213.941V131.666ZM219.943 131.666H220.943V130.666H219.943V131.666ZM225.945 131.666H226.945V130.666H225.945V131.666ZM231.946 131.666H232.947V130.666H231.946V131.666ZM237.948 131.666H238.949V130.666H237.948V131.666ZM243.95 131.666H244.95V130.666H243.95V131.666ZM249.952 131.666H250.952V130.666H249.952V131.666ZM255.954 131.666H256.954V130.666H255.954V131.666ZM261.955 131.666H262.956V130.666H261.955V131.666ZM267.957 131.666H268.958V130.666H267.957V131.666ZM273.959 131.666H274.959V130.666H273.959V131.666ZM279.961 131.666H280.961V130.666H279.961V131.666ZM285.963 131.666H286.963V130.666H285.963V131.666ZM291.964 131.666H292.965V130.666H291.964V131.666ZM297.966 131.666H298.967V130.666H297.966V131.666ZM303.968 131.666H304.968V130.666H303.968V131.666ZM309.97 131.666H310.97V130.666H309.97V131.666ZM315.972 131.666H316.972V130.666H315.972V131.666ZM321.973 131.666H322.974V130.666H321.973V131.666ZM327.975 131.666H328.976V130.666H327.975V131.666ZM333.977 131.666H334.977V130.666H333.977V131.666ZM339.979 131.666H340.979V130.666H339.979V131.666ZM345.981 131.666H346.981V130.666H345.981V131.666ZM351.982 131.666H352.983V130.666H351.982V131.666ZM357.984 131.666H358.985V130.666H357.984V131.666ZM363.986 131.666H364.986V130.666H363.986V131.666ZM369.988 131.666H370.988V130.666H369.988V131.666ZM375.99 131.666H376.99V130.666H375.99V131.666ZM381.991 131.666H382.992V130.666H381.991V131.666ZM387.993 131.666H388.994V130.666H387.993V131.666ZM393.995 131.666H394.995V130.666H393.995V131.666ZM399.997 131.666H400.997V130.666H399.997V131.666ZM405.999 131.666H406.999V130.666H405.999V131.666ZM412 131.666H413.001V130.666H412V131.666ZM418.002 131.666H419.003V130.666H418.002V131.666ZM424.004 131.666H425.004V130.666H424.004V131.666ZM430.006 131.666H431.006V130.666H430.006V131.666ZM436.008 131.666H437.008V130.666H436.008V131.666ZM442.009 131.666H443.01V130.666H442.009V131.666ZM448.011 131.666H449.012V130.666H448.011V131.666ZM454.013 131.666H455.013V130.666H454.013V131.666ZM460.015 131.666H461.015V130.666H460.015V131.666ZM466.017 131.666H467.017V130.666H466.017V131.666ZM472.018 131.666H473.019V130.666H472.018V131.666ZM478.02 131.666H479.021V130.666H478.02V131.666ZM484.022 131.666H485.022V130.666H484.022V131.666ZM490.024 131.666H491.024V130.666H490.024V131.666ZM496.026 131.666H497.026V130.666H496.026V131.666ZM502.027 131.666H503.028V130.666H502.027V131.666ZM508.029 131.666H509.03V130.666H508.029V131.666ZM514.031 131.666H515.031V130.666H514.031V131.666ZM520.033 131.666H521.033V130.666H520.033V131.666ZM526.035 131.666H527.035V130.666H526.035V131.666ZM532.036 131.666H533.037V130.666H532.036V131.666ZM538.038 131.666H539.039V130.666H538.038V131.666ZM544.04 131.666H545.04V130.666H544.04V131.666ZM550.042 131.666H551.042V130.666H550.042V131.666ZM556.044 131.666H557.044V130.666H556.044V131.666ZM562.045 131.666H563.046V130.666H562.045V131.666ZM568.047 131.666H569.048V130.666H568.047V131.666ZM574.049 131.666H575.049V130.666H574.049V131.666ZM580.051 131.666H581.051V130.666H580.051V131.666ZM586.053 131.666H587.053V130.666H586.053V131.666ZM592.054 131.666H593.055V130.666H592.054V131.666ZM598.056 131.666H599.057V130.666H598.056V131.666ZM604.058 131.666H605.058V130.666H604.058V131.666ZM610.06 131.666H611.06V130.666H610.06V131.666ZM616.062 131.666H617.062V130.666H616.062V131.666ZM622.064 131.666H623.064V130.666H622.064V131.666ZM628.065 131.666H629.066V130.666H628.065V131.666ZM634.067 131.666H635.067V130.666H634.067V131.666ZM640.069 131.666H641.069V130.666H640.069V131.666ZM646.071 131.666H647.071V130.666H646.071V131.666ZM652.073 131.666H653.073V130.666H652.073V131.666ZM658.074 131.666H659.075V130.666H658.074V131.666ZM664.076 131.666H665.076V130.666H664.076V131.666ZM670.078 131.666H671.078V130.666H670.078V131.666ZM676.08 131.666H677.08V130.666H676.08V131.666ZM682.082 131.666H683.082V130.666H682.082V131.666ZM688.083 131.666H689.084V130.666H688.083V131.666ZM694.085 131.666H695.086V130.666H694.085V131.666ZM700.087 131.666H701.087V130.666H700.087V131.666ZM706.089 131.666H707.089V130.666H706.089V131.666ZM712.091 131.666H713.091V130.666H712.091V131.666ZM718.093 131.666H719.093V130.666H718.093V131.666ZM724.094 131.666H725.095V130.666H724.094V131.666ZM730.096 131.666H731.097V130.666H730.096V131.666ZM736.098 131.666H737.098V130.666H736.098V131.666ZM742.1 131.666H743.1V130.666H742.1V131.666ZM748.102 131.666H749.102V130.666H748.102V131.666ZM754.104 131.666H755.104V130.666H754.104V131.666ZM760.105 131.666H761.106V130.666H760.105V131.666ZM766.107 131.666H767.108V130.666H766.107V131.666ZM772.109 131.666H773.109V130.666H772.109V131.666ZM778.111 131.666H779.111V130.666H778.111V131.666ZM784.113 131.666H785.113V130.666H784.113V131.666ZM790.115 131.666H791.115V130.666H790.115V131.666ZM796.116 131.666H797.117V130.666H796.116V131.666ZM802.118 131.666H803.119V130.666H802.118V131.666ZM808.12 131.666H809.12V130.666H808.12V131.666ZM814.122 131.666H815.122V130.666H814.122V131.666ZM820.124 131.666H821.124V130.666H820.124V131.666ZM826.126 131.666H827.126V130.666H826.126V131.666ZM832.127 131.666H833.128V130.666H832.127V131.666ZM838.129 131.666H839.13V130.666H838.129V131.666ZM844.131 131.666H845.131V130.666H844.131V131.666ZM850.133 131.666H851.133V130.666H850.133V131.666ZM856.135 131.666H857.135V130.666H856.135V131.666ZM862.137 131.666H863.137V130.666H862.137V131.666ZM868.138 131.666H869.139V130.666H868.138V131.666ZM874.14 131.666H874.639V130.666H874.14V131.666ZM874.139 131.166V131.654H875.139V131.166H874.139ZM874.139 136.54V137.517H875.139V136.54H874.139ZM874.139 142.402V143.379H875.139V142.402H874.139ZM874.139 148.264V149.241H875.139V148.264H874.139ZM874.139 154.126V155.103H875.139V154.126H874.139ZM874.139 159.988V160.965H875.139V159.988H874.139ZM874.139 165.85V166.827H875.139V165.85H874.139ZM874.139 171.713V172.69H875.139V171.713H874.139ZM874.139 177.575V178.552H875.139V177.575H874.139ZM874.139 183.437V184.414H875.139V183.437H874.139ZM874.139 189.299V189.788H875.139V189.299H874.139Z" fill="white"/>
<path d="M449.498 503.422C449.498 504.219 449.201 504.834 448.607 505.266C448.013 505.698 447.18 505.914 446.107 505.914C444.972 505.914 444.086 505.735 443.451 505.375V504.172C443.862 504.38 444.302 504.545 444.771 504.664C445.245 504.784 445.701 504.844 446.138 504.844C446.815 504.844 447.336 504.737 447.701 504.524C448.065 504.305 448.248 503.974 448.248 503.531C448.248 503.198 448.102 502.914 447.81 502.68C447.524 502.44 446.961 502.159 446.123 501.836C445.326 501.539 444.758 501.281 444.42 501.063C444.086 500.839 443.836 500.586 443.67 500.305C443.508 500.024 443.427 499.688 443.427 499.297C443.427 498.599 443.711 498.05 444.279 497.649C444.847 497.242 445.625 497.039 446.615 497.039C447.537 497.039 448.438 497.227 449.318 497.602L448.857 498.656C447.998 498.302 447.219 498.125 446.521 498.125C445.907 498.125 445.443 498.222 445.131 498.414C444.818 498.607 444.662 498.873 444.662 499.211C444.662 499.44 444.719 499.636 444.834 499.797C444.954 499.959 445.144 500.112 445.404 500.258C445.664 500.404 446.164 500.615 446.904 500.891C447.92 501.261 448.605 501.633 448.959 502.008C449.318 502.383 449.498 502.854 449.498 503.422ZM455.232 505.914C453.967 505.914 452.967 505.529 452.232 504.758C451.503 503.987 451.138 502.917 451.138 501.547C451.138 500.167 451.477 499.071 452.154 498.258C452.836 497.446 453.75 497.039 454.896 497.039C455.969 497.039 456.818 497.393 457.443 498.102C458.068 498.805 458.381 499.735 458.381 500.891V501.711H452.482C452.508 502.716 452.761 503.479 453.24 504C453.724 504.521 454.404 504.781 455.279 504.781C456.201 504.781 457.112 504.589 458.013 504.203V505.36C457.555 505.558 457.12 505.698 456.709 505.781C456.302 505.87 455.81 505.914 455.232 505.914ZM454.881 498.125C454.193 498.125 453.644 498.349 453.232 498.797C452.826 499.245 452.586 499.865 452.513 500.656H456.99C456.99 499.839 456.808 499.214 456.443 498.781C456.079 498.344 455.558 498.125 454.881 498.125ZM466.459 505.758V500.219C466.459 499.521 466.3 499 465.982 498.656C465.664 498.313 465.167 498.141 464.49 498.141C463.594 498.141 462.938 498.383 462.521 498.867C462.105 499.352 461.896 500.151 461.896 501.266V505.758H460.599V497.196H461.654L461.865 498.367H461.927C462.193 497.946 462.565 497.62 463.045 497.391C463.524 497.156 464.058 497.039 464.646 497.039C465.677 497.039 466.454 497.289 466.974 497.789C467.495 498.284 467.756 499.078 467.756 500.172V505.758H466.459ZM476.256 504.61H476.185C475.586 505.479 474.69 505.914 473.498 505.914C472.378 505.914 471.506 505.531 470.881 504.766C470.261 504 469.951 502.912 469.951 501.5C469.951 500.089 470.263 498.992 470.888 498.211C471.513 497.43 472.383 497.039 473.498 497.039C474.659 497.039 475.55 497.461 476.17 498.305H476.271L476.217 497.688L476.185 497.086V493.602H477.482V505.758H476.427L476.256 504.61ZM473.662 504.828C474.547 504.828 475.188 504.589 475.584 504.11C475.985 503.625 476.185 502.847 476.185 501.774V501.5C476.185 500.287 475.982 499.422 475.576 498.906C475.175 498.386 474.532 498.125 473.646 498.125C472.886 498.125 472.302 498.422 471.896 499.016C471.495 499.604 471.295 500.438 471.295 501.516C471.295 502.61 471.495 503.435 471.896 503.992C472.297 504.55 472.886 504.828 473.662 504.828ZM488.302 497.039C488.683 497.039 489.024 497.071 489.326 497.133L489.146 498.336C488.792 498.258 488.48 498.219 488.209 498.219C487.516 498.219 486.922 498.5 486.427 499.063C485.938 499.625 485.693 500.326 485.693 501.164V505.758H484.396V497.196H485.467L485.615 498.781H485.677C485.995 498.224 486.378 497.795 486.826 497.492C487.274 497.19 487.766 497.039 488.302 497.039ZM494.545 505.914C493.279 505.914 492.279 505.529 491.545 504.758C490.815 503.987 490.451 502.917 490.451 501.547C490.451 500.167 490.789 499.071 491.467 498.258C492.149 497.446 493.063 497.039 494.209 497.039C495.282 497.039 496.131 497.393 496.756 498.102C497.381 498.805 497.693 499.735 497.693 500.891V501.711H491.795C491.821 502.716 492.073 503.479 492.552 504C493.037 504.521 493.717 504.781 494.592 504.781C495.513 504.781 496.425 504.589 497.326 504.203V505.36C496.868 505.558 496.433 505.698 496.021 505.781C495.615 505.87 495.123 505.914 494.545 505.914ZM494.193 498.125C493.506 498.125 492.956 498.349 492.545 498.797C492.138 499.245 491.899 499.865 491.826 500.656H496.302C496.302 499.839 496.12 499.214 495.756 498.781C495.391 498.344 494.87 498.125 494.193 498.125ZM506.904 505.758L505.334 500.735C505.235 500.427 505.05 499.729 504.779 498.641H504.717C504.508 499.552 504.326 500.255 504.17 500.75L502.552 505.758H501.052L498.717 497.196H500.076C500.628 499.347 501.047 500.985 501.334 502.11C501.625 503.235 501.792 503.992 501.834 504.383H501.896C501.954 504.086 502.045 503.703 502.17 503.235C502.3 502.761 502.412 502.386 502.506 502.11L504.076 497.196H505.482L507.013 502.11C507.305 503.005 507.503 503.758 507.607 504.367H507.67C507.69 504.18 507.745 503.891 507.834 503.5C507.927 503.11 508.472 501.008 509.467 497.196H510.81L508.443 505.758H506.904ZM517.631 505.758L517.373 504.539H517.31C516.883 505.076 516.456 505.44 516.029 505.633C515.607 505.821 515.079 505.914 514.443 505.914C513.594 505.914 512.927 505.696 512.443 505.258C511.964 504.821 511.724 504.198 511.724 503.391C511.724 501.662 513.107 500.755 515.873 500.672L517.326 500.625V500.094C517.326 499.422 517.18 498.927 516.888 498.61C516.602 498.287 516.141 498.125 515.506 498.125C514.792 498.125 513.985 498.344 513.084 498.781L512.685 497.789C513.107 497.56 513.568 497.38 514.068 497.25C514.573 497.12 515.079 497.055 515.584 497.055C516.605 497.055 517.36 497.281 517.849 497.735C518.344 498.188 518.592 498.914 518.592 499.914V505.758H517.631ZM514.701 504.844C515.508 504.844 516.141 504.623 516.599 504.18C517.063 503.737 517.295 503.117 517.295 502.321V501.547L515.998 501.602C514.967 501.638 514.222 501.8 513.763 502.086C513.31 502.367 513.084 502.808 513.084 503.406C513.084 503.875 513.224 504.232 513.506 504.477C513.792 504.722 514.19 504.844 514.701 504.844ZM525.177 497.039C525.558 497.039 525.899 497.071 526.201 497.133L526.021 498.336C525.667 498.258 525.355 498.219 525.084 498.219C524.391 498.219 523.797 498.5 523.302 499.063C522.813 499.625 522.568 500.326 522.568 501.164V505.758H521.271V497.196H522.342L522.49 498.781H522.552C522.87 498.224 523.253 497.795 523.701 497.492C524.149 497.19 524.641 497.039 525.177 497.039ZM533.631 504.61H533.56C532.961 505.479 532.065 505.914 530.873 505.914C529.753 505.914 528.881 505.531 528.256 504.766C527.636 504 527.326 502.912 527.326 501.5C527.326 500.089 527.638 498.992 528.263 498.211C528.888 497.43 529.758 497.039 530.873 497.039C532.034 497.039 532.925 497.461 533.545 498.305H533.646L533.592 497.688L533.56 497.086V493.602H534.857V505.758H533.802L533.631 504.61ZM531.037 504.828C531.922 504.828 532.563 504.589 532.959 504.11C533.36 503.625 533.56 502.847 533.56 501.774V501.5C533.56 500.287 533.357 499.422 532.951 498.906C532.55 498.386 531.907 498.125 531.021 498.125C530.261 498.125 529.677 498.422 529.271 499.016C528.87 499.604 528.67 500.438 528.67 501.516C528.67 502.61 528.87 503.435 529.271 503.992C529.672 504.55 530.261 504.828 531.037 504.828ZM541.037 501.375C541.037 499.995 541.237 498.703 541.638 497.5C542.045 496.297 542.628 495.242 543.388 494.336H544.654C543.904 495.341 543.339 496.446 542.959 497.649C542.584 498.852 542.396 500.089 542.396 501.36C542.396 502.61 542.589 503.831 542.974 505.024C543.36 506.216 543.914 507.305 544.638 508.289H543.388C542.623 507.404 542.039 506.37 541.638 505.188C541.237 504.005 541.037 502.735 541.037 501.375ZM551.592 495.36C550.336 495.36 549.344 495.779 548.615 496.617C547.891 497.451 547.529 498.594 547.529 500.047C547.529 501.542 547.878 502.698 548.576 503.516C549.279 504.328 550.279 504.735 551.576 504.735C552.373 504.735 553.282 504.591 554.302 504.305V505.469C553.511 505.766 552.534 505.914 551.373 505.914C549.69 505.914 548.391 505.404 547.474 504.383C546.563 503.362 546.107 501.912 546.107 500.031C546.107 498.854 546.326 497.823 546.763 496.938C547.206 496.052 547.842 495.37 548.67 494.891C549.503 494.412 550.482 494.172 551.607 494.172C552.805 494.172 553.852 494.391 554.748 494.828L554.185 495.969C553.321 495.563 552.456 495.36 551.592 495.36ZM566.763 505.758H565.451L563.146 498.11C563.037 497.771 562.914 497.344 562.779 496.828C562.644 496.313 562.573 496.003 562.568 495.899C562.454 496.586 562.271 497.339 562.021 498.156L559.787 505.758H558.474L555.435 494.336H556.842L558.646 501.391C558.896 502.38 559.079 503.276 559.193 504.078C559.334 503.125 559.542 502.193 559.818 501.281L561.865 494.336H563.271L565.42 501.344C565.67 502.151 565.881 503.063 566.052 504.078C566.151 503.339 566.339 502.438 566.615 501.375L568.412 494.336H569.818L566.763 505.758ZM578.326 505.758H570.818V504.641L573.826 501.617C574.743 500.69 575.347 500.029 575.638 499.633C575.93 499.237 576.149 498.852 576.295 498.477C576.44 498.102 576.513 497.698 576.513 497.266C576.513 496.656 576.329 496.175 575.959 495.821C575.589 495.461 575.076 495.281 574.42 495.281C573.946 495.281 573.495 495.36 573.068 495.516C572.646 495.672 572.175 495.956 571.654 496.367L570.967 495.485C572.019 494.61 573.164 494.172 574.404 494.172C575.477 494.172 576.318 494.448 576.927 495C577.537 495.547 577.842 496.284 577.842 497.211C577.842 497.935 577.638 498.651 577.232 499.36C576.826 500.068 576.065 500.964 574.951 502.047L572.451 504.492V504.555H578.326V505.758ZM587.545 500.031C587.545 502.005 587.232 503.479 586.607 504.453C585.987 505.427 585.037 505.914 583.756 505.914C582.526 505.914 581.592 505.417 580.951 504.422C580.31 503.422 579.99 501.959 579.99 500.031C579.99 498.042 580.3 496.565 580.92 495.602C581.539 494.638 582.485 494.156 583.756 494.156C584.995 494.156 585.935 494.659 586.576 495.664C587.222 496.67 587.545 498.125 587.545 500.031ZM581.302 500.031C581.302 501.693 581.498 502.904 581.888 503.664C582.279 504.42 582.901 504.797 583.756 504.797C584.62 504.797 585.245 504.414 585.631 503.649C586.021 502.878 586.217 501.672 586.217 500.031C586.217 498.391 586.021 497.19 585.631 496.43C585.245 495.664 584.62 495.281 583.756 495.281C582.901 495.281 582.279 495.659 581.888 496.414C581.498 497.164 581.302 498.37 581.302 500.031ZM592.443 501.375C592.443 502.745 592.24 504.021 591.834 505.203C591.433 506.386 590.852 507.414 590.092 508.289H588.842C589.565 507.31 590.12 506.224 590.506 505.031C590.891 503.834 591.084 502.61 591.084 501.36C591.084 500.089 590.894 498.852 590.513 497.649C590.138 496.446 589.576 495.341 588.826 494.336H590.092C590.857 495.248 591.44 496.308 591.842 497.516C592.243 498.719 592.443 500.005 592.443 501.375Z" fill="white"/>
<path d="M874.639 470.439V470.939H875.139V470.439H874.639ZM148.422 470.439H147.922V470.939H148.422V470.439ZM148.775 411.464C148.58 411.268 148.263 411.268 148.068 411.464L144.886 414.646C144.691 414.841 144.691 415.157 144.886 415.353C145.081 415.548 145.398 415.548 145.593 415.353L148.422 412.524L151.25 415.353C151.445 415.548 151.762 415.548 151.957 415.353C152.152 415.157 152.152 414.841 151.957 414.646L148.775 411.464ZM874.139 411.817V412.306H875.139V411.817H874.139ZM874.139 417.191V418.168H875.139V417.191H874.139ZM874.139 423.053V424.03H875.139V423.053H874.139ZM874.139 428.915V429.892H875.139V428.915H874.139ZM874.139 434.777V435.754H875.139V434.777H874.139ZM874.139 440.639V441.617H875.139V440.639H874.139ZM874.139 446.502V447.479H875.139V446.502H874.139ZM874.139 452.364V453.341H875.139V452.364H874.139ZM874.139 458.226V459.203H875.139V458.226H874.139ZM874.139 464.088V465.065H875.139V464.088H874.139ZM874.139 469.95V470.439H875.139V469.95H874.139ZM874.639 469.939H874.139V470.939H874.639V469.939ZM869.137 469.939H868.137V470.939H869.137V469.939ZM863.135 469.939H862.135V470.939H863.135V469.939ZM857.134 469.939H856.133V470.939H857.134V469.939ZM851.132 469.939H850.132V470.939H851.132V469.939ZM845.13 469.939H844.13V470.939H845.13V469.939ZM839.128 469.939H838.128V470.939H839.128V469.939ZM833.126 469.939H832.126V470.939H833.126V469.939ZM827.125 469.939H826.124V470.939H827.125V469.939ZM821.123 469.939H820.123V470.939H821.123V469.939ZM815.121 469.939H814.121V470.939H815.121V469.939ZM809.119 469.939H808.119V470.939H809.119V469.939ZM803.118 469.939H802.117V470.939H803.118V469.939ZM797.116 469.939H796.115V470.939H797.116V469.939ZM791.114 469.939H790.114V470.939H791.114V469.939ZM785.112 469.939H784.112V470.939H785.112V469.939ZM779.11 469.939H778.11V470.939H779.11V469.939ZM773.109 469.939H772.108V470.939H773.109V469.939ZM767.107 469.939H766.106V470.939H767.107V469.939ZM761.105 469.939H760.105V470.939H761.105V469.939ZM755.103 469.939H754.103V470.939H755.103V469.939ZM749.101 469.939H748.101V470.939H749.101V469.939ZM743.1 469.939H742.099V470.939H743.1V469.939ZM737.098 469.939H736.097V470.939H737.098V469.939ZM731.096 469.939H730.096V470.939H731.096V469.939ZM725.094 469.939H724.094V470.939H725.094V469.939ZM719.092 469.939H718.092V470.939H719.092V469.939ZM713.091 469.939H712.09V470.939H713.091V469.939ZM707.089 469.939H706.088V470.939H707.089V469.939ZM701.087 469.939H700.087V470.939H701.087V469.939ZM695.085 469.939H694.085V470.939H695.085V469.939ZM689.083 469.939H688.083V470.939H689.083V469.939ZM683.082 469.939H682.081V470.939H683.082V469.939ZM677.08 469.939H676.079V470.939H677.08V469.939ZM671.078 469.939H670.078V470.939H671.078V469.939ZM665.076 469.939H664.076V470.939H665.076V469.939ZM659.074 469.939H658.074V470.939H659.074V469.939ZM653.073 469.939H652.072V470.939H653.073V469.939ZM647.071 469.939H646.07V470.939H647.071V469.939ZM641.069 469.939H640.069V470.939H641.069V469.939ZM635.067 469.939H634.067V470.939H635.067V469.939ZM629.065 469.939H628.065V470.939H629.065V469.939ZM623.064 469.939H622.063V470.939H623.064V469.939ZM617.062 469.939H616.061V470.939H617.062V469.939ZM611.06 469.939H610.06V470.939H611.06V469.939ZM605.058 469.939H604.058V470.939H605.058V469.939ZM599.056 469.939H598.056V470.939H599.056V469.939ZM593.055 469.939H592.054V470.939H593.055V469.939ZM587.053 469.939H586.052V470.939H587.053V469.939ZM581.051 469.939H580.051V470.939H581.051V469.939ZM575.049 469.939H574.049V470.939H575.049V469.939ZM569.047 469.939H568.047V470.939H569.047V469.939ZM563.046 469.939H562.045V470.939H563.046V469.939ZM557.044 469.939H556.043V470.939H557.044V469.939ZM551.042 469.939H550.042V470.939H551.042V469.939ZM545.04 469.939H544.04V470.939H545.04V469.939ZM539.038 469.939H538.038V470.939H539.038V469.939ZM533.037 469.939H532.036V470.939H533.037V469.939ZM527.035 469.939H526.034V470.939H527.035V469.939ZM521.033 469.939H520.033V470.939H521.033V469.939ZM515.031 469.939H514.031V470.939H515.031V469.939ZM509.029 469.939H508.029V470.939H509.029V469.939ZM503.028 469.939H502.027V470.939H503.028V469.939ZM497.026 469.939H496.025V470.939H497.026V469.939ZM491.024 469.939H490.024V470.939H491.024V469.939ZM485.022 469.939H484.022V470.939H485.022V469.939ZM479.02 469.939H478.02V470.939H479.02V469.939ZM473.019 469.939H472.018V470.939H473.019V469.939ZM467.017 469.939H466.016V470.939H467.017V469.939ZM461.015 469.939H460.015V470.939H461.015V469.939ZM455.013 469.939H454.013V470.939H455.013V469.939ZM449.011 469.939H448.011V470.939H449.011V469.939ZM443.01 469.939H442.009V470.939H443.01V469.939ZM437.008 469.939H436.007V470.939H437.008V469.939ZM431.006 469.939H430.006V470.939H431.006V469.939ZM425.004 469.939H424.004V470.939H425.004V469.939ZM419.002 469.939H418.002V470.939H419.002V469.939ZM413.001 469.939H412V470.939H413.001V469.939ZM406.999 469.939H405.998V470.939H406.999V469.939ZM400.997 469.939H399.997V470.939H400.997V469.939ZM394.995 469.939H393.995V470.939H394.995V469.939ZM388.993 469.939H387.993V470.939H388.993V469.939ZM382.992 469.939H381.991V470.939H382.992V469.939ZM376.99 469.939H375.989V470.939H376.99V469.939ZM370.988 469.939H369.988V470.939H370.988V469.939ZM364.986 469.939H363.986V470.939H364.986V469.939ZM358.984 469.939H357.984V470.939H358.984V469.939ZM352.982 469.939H351.982V470.939H352.982V469.939ZM346.981 469.939H345.98V470.939H346.981V469.939ZM340.979 469.939H339.979V470.939H340.979V469.939ZM334.977 469.939H333.977V470.939H334.977V469.939ZM328.975 469.939H327.975V470.939H328.975V469.939ZM322.973 469.939H321.973V470.939H322.973V469.939ZM316.971 469.939H315.971V470.939H316.971V469.939ZM310.97 469.939H309.969V470.939H310.97V469.939ZM304.968 469.939H303.967V470.939H304.968V469.939ZM298.966 469.939H297.966V470.939H298.966V469.939ZM292.964 469.939H291.964V470.939H292.964V469.939ZM286.962 469.939H285.962V470.939H286.962V469.939ZM280.961 469.939H279.96V470.939H280.961V469.939ZM274.959 469.939H273.958V470.939H274.959V469.939ZM268.957 469.939H267.956V470.939H268.957V469.939ZM262.955 469.939H261.955V470.939H262.955V469.939ZM256.953 469.939H255.953V470.939H256.953V469.939ZM250.951 469.939H249.951V470.939H250.951V469.939ZM244.95 469.939H243.949V470.939H244.95V469.939ZM238.948 469.939H237.947V470.939H238.948V469.939ZM232.946 469.939H231.946V470.939H232.946V469.939ZM226.944 469.939H225.944V470.939H226.944V469.939ZM220.942 469.939H219.942V470.939H220.942V469.939ZM214.94 469.939H213.94V470.939H214.94V469.939ZM208.939 469.939H207.938V470.939H208.939V469.939ZM202.937 469.939H201.936V470.939H202.937V469.939ZM196.935 469.939H195.935V470.939H196.935V469.939ZM190.933 469.939H189.933V470.939H190.933V469.939ZM184.931 469.939H183.931V470.939H184.931V469.939ZM178.929 469.939H177.929V470.939H178.929V469.939ZM172.928 469.939H171.927V470.939H172.928V469.939ZM166.926 469.939H165.925V470.939H166.926V469.939ZM160.924 469.939H159.924V470.939H160.924V469.939ZM154.922 469.939H153.922V470.939H154.922V469.939ZM148.92 469.939H148.422V470.939H148.92V469.939ZM148.922 470.439V469.95H147.922V470.439H148.922ZM148.922 465.065V464.088H147.922V465.065H148.922ZM148.922 459.203V458.226H147.922V459.203H148.922ZM148.922 453.341V452.364H147.922V453.341H148.922ZM148.922 447.479V446.502H147.922V447.479H148.922ZM148.922 441.617V440.639H147.922V441.617H148.922ZM148.922 435.754V434.777H147.922V435.754H148.922ZM148.922 429.892V428.915H147.922V429.892H148.922ZM148.922 424.03V423.053H147.922V424.03H148.922ZM148.922 418.168V417.191H147.922V418.168H148.922ZM148.922 412.306V411.817H147.922V412.306H148.922Z" fill="white"/>
<defs>
<linearGradient id="paint0_linear" x1="153.471" y1="388.369" x2="153.471" y2="212.504" gradientUnits="userSpaceOnUse">
<stop stop-color="#9F2FFF"/>
<stop offset="1" stop-color="#0BB1D3"/>
</linearGradient>
<linearGradient id="paint1_linear" x1="880.529" y1="388.369" x2="880.529" y2="212.504" gradientUnits="userSpaceOnUse">
<stop stop-color="#9F2FFF"/>
<stop offset="1" stop-color="#0BB1D3"/>
</linearGradient>
</defs>
</svg>
