<svg width="168" height="46" viewBox="0 0 168 46" fill="none" xmlns="http://www.w3.org/2000/svg">
<path d="M22.8177 13.785L30.9346 27.8537L24.5779 27.8716L22.5787 24.4064L22.408 24.1123L8.08575 24.0692L6.88654 26.1947L21.1673 26.211L23.3534 30L34.6154 29.9807L24.0822 11.7249" fill="white"/>
<path d="M9.17958 18.3211L17.2965 4.2524L20.4905 9.75245L18.4913 13.2191L18.3206 13.5132L25.4461 25.9481L27.8846 25.9244L20.7576 13.5385L22.9438 9.75097L17.298 0L6.76483 18.2573" fill="white"/>
<path d="M19.9132 27.8745H3.68075L6.84352 22.3552H10.8434H11.1818L18.38 9.96336L17.1407 7.86166L9.98552 20.2297H5.61463L0 30H21.0664" fill="white"/>
<path d="M51.5723 2.19727L47.9424 12H46.6777L43.123 2.19727H44.4014L47.1152 9.96973C47.2018 10.2204 47.2679 10.5098 47.3135 10.8379H47.3408C47.3773 10.5645 47.4525 10.2705 47.5664 9.95605L50.335 2.19727H51.5723ZM60.7417 12H59.4702L58.4312 9.25195H54.2749L53.2974 12H52.0191L55.7788 2.19727H56.9683L60.7417 12ZM58.0552 8.21973L56.5171 4.04297C56.467 3.90625 56.4168 3.6875 56.3667 3.38672H56.3394C56.2938 3.66471 56.2414 3.88346 56.1821 4.04297L54.6577 8.21973H58.0552ZM68.2569 12H63.1709V2.19727H64.3194V10.9609H68.2569V12ZM71.8892 12H70.7408V2.19727H71.8892V12ZM75.4532 12V2.19727H78.1602C81.6147 2.19727 83.3419 3.79004 83.3419 6.97559C83.3419 8.48861 82.8611 9.7054 81.8995 10.626C80.9425 11.542 79.6596 12 78.0509 12H75.4532ZM76.6016 3.23633V10.9609H78.0645C79.3497 10.9609 80.35 10.6169 81.0655 9.92871C81.781 9.24056 82.1388 8.2653 82.1388 7.00293C82.1388 4.49186 80.8035 3.23633 78.1329 3.23633H76.6016ZM93.6051 12H92.3336L91.2945 9.25195H87.1383L86.1607 12H84.8824L88.6422 2.19727H89.8316L93.6051 12ZM90.9186 8.21973L89.3805 4.04297C89.3303 3.90625 89.2802 3.6875 89.2301 3.38672H89.2027C89.1572 3.66471 89.1048 3.88346 89.0455 4.04297L87.5211 8.21973H90.9186ZM100.819 3.23633H97.9894V12H96.8409V3.23633H94.0177V2.19727H100.819V3.23633ZM106.667 12.1641C105.277 12.1641 104.162 11.7061 103.324 10.79C102.49 9.87402 102.073 8.68229 102.073 7.21484C102.073 5.63802 102.499 4.38021 103.351 3.44141C104.203 2.5026 105.363 2.0332 106.831 2.0332C108.184 2.0332 109.273 2.48893 110.098 3.40039C110.928 4.31185 111.342 5.50358 111.342 6.97559C111.342 8.5752 110.919 9.83984 110.071 10.7695C109.223 11.6992 108.089 12.1641 106.667 12.1641ZM106.749 3.07227C105.719 3.07227 104.882 3.44368 104.24 4.18652C103.597 4.92936 103.276 5.90462 103.276 7.1123C103.276 8.31999 103.588 9.29297 104.213 10.0312C104.841 10.765 105.659 11.1318 106.667 11.1318C107.742 11.1318 108.59 10.7809 109.21 10.0791C109.829 9.37728 110.139 8.39518 110.139 7.13281C110.139 5.83854 109.839 4.83822 109.237 4.13184C108.635 3.42546 107.806 3.07227 106.749 3.07227ZM121.277 12H119.91L118.27 9.25195C118.119 8.99674 117.973 8.78027 117.832 8.60254C117.691 8.42025 117.545 8.27214 117.395 8.1582C117.249 8.04427 117.089 7.96224 116.916 7.91211C116.748 7.85742 116.556 7.83008 116.342 7.83008H115.399V12H114.25V2.19727H117.176C117.604 2.19727 117.999 2.25195 118.359 2.36133C118.723 2.46615 119.038 2.62793 119.302 2.84668C119.571 3.06543 119.78 3.33887 119.931 3.66699C120.081 3.99056 120.156 4.37109 120.156 4.80859C120.156 5.15039 120.104 5.46484 119.999 5.75195C119.899 6.03451 119.753 6.28743 119.562 6.51074C119.375 6.73405 119.147 6.92546 118.878 7.08496C118.614 7.23991 118.315 7.36068 117.983 7.44727V7.47461C118.147 7.54753 118.288 7.63184 118.406 7.72754C118.529 7.81868 118.646 7.92806 118.755 8.05566C118.864 8.18327 118.972 8.3291 119.076 8.49316C119.186 8.65267 119.306 8.83952 119.439 9.05371L121.277 12ZM115.399 3.23633V6.79102H116.957C117.244 6.79102 117.509 6.74772 117.75 6.66113C117.996 6.57454 118.208 6.4515 118.386 6.29199C118.564 6.12793 118.703 5.92969 118.803 5.69727C118.903 5.46029 118.953 5.19596 118.953 4.9043C118.953 4.38021 118.782 3.97233 118.441 3.68066C118.103 3.38444 117.613 3.23633 116.971 3.23633H115.399ZM140.054 2.19727L137.285 12H135.939L133.922 4.83594C133.835 4.5306 133.783 4.19792 133.765 3.83789H133.738C133.71 4.17513 133.651 4.50326 133.56 4.82227L131.529 12H130.196L127.325 2.19727H128.59L130.675 9.7168C130.762 10.0312 130.816 10.3594 130.839 10.7012H130.873C130.896 10.4596 130.967 10.1315 131.085 9.7168L133.252 2.19727H134.353L136.431 9.77148C136.504 10.0312 136.558 10.3366 136.595 10.6875H136.622C136.64 10.4505 136.702 10.1361 136.807 9.74414L138.81 2.19727H140.054ZM149.579 12H148.307L147.268 9.25195H143.112L142.134 12H140.856L144.616 2.19727H145.805L149.579 12ZM146.892 8.21973L145.354 4.04297C145.304 3.90625 145.254 3.6875 145.204 3.38672H145.176C145.131 3.66471 145.079 3.88346 145.019 4.04297L143.495 8.21973H146.892ZM159.035 12H157.668L156.028 9.25195C155.877 8.99674 155.731 8.78027 155.59 8.60254C155.449 8.42025 155.303 8.27214 155.153 8.1582C155.007 8.04427 154.847 7.96224 154.674 7.91211C154.505 7.85742 154.314 7.83008 154.1 7.83008H153.156V12H152.008V2.19727H154.934C155.362 2.19727 155.756 2.25195 156.116 2.36133C156.481 2.46615 156.795 2.62793 157.06 2.84668C157.329 3.06543 157.538 3.33887 157.689 3.66699C157.839 3.99056 157.914 4.37109 157.914 4.80859C157.914 5.15039 157.862 5.46484 157.757 5.75195C157.657 6.03451 157.511 6.28743 157.32 6.51074C157.133 6.73405 156.905 6.92546 156.636 7.08496C156.372 7.23991 156.073 7.36068 155.74 7.44727V7.47461C155.905 7.54753 156.046 7.63184 156.164 7.72754C156.287 7.81868 156.404 7.92806 156.513 8.05566C156.622 8.18327 156.729 8.3291 156.834 8.49316C156.944 8.65267 157.064 8.83952 157.197 9.05371L159.035 12ZM153.156 3.23633V6.79102H154.715C155.002 6.79102 155.267 6.74772 155.508 6.66113C155.754 6.57454 155.966 6.4515 156.144 6.29199C156.322 6.12793 156.461 5.92969 156.561 5.69727C156.661 5.46029 156.711 5.19596 156.711 4.9043C156.711 4.38021 156.54 3.97233 156.198 3.68066C155.861 3.38444 155.371 3.23633 154.729 3.23633H153.156ZM160.911 11.6035V10.25C161.066 10.3867 161.25 10.5098 161.465 10.6191C161.683 10.7285 161.911 10.8219 162.148 10.8994C162.39 10.9723 162.631 11.0293 162.873 11.0703C163.114 11.1113 163.338 11.1318 163.543 11.1318C164.249 11.1318 164.775 11.002 165.122 10.7422C165.473 10.4779 165.648 10.0996 165.648 9.60742C165.648 9.3431 165.589 9.11296 165.47 8.91699C165.357 8.72103 165.197 8.54329 164.992 8.38379C164.787 8.21973 164.543 8.06478 164.261 7.91895C163.983 7.76855 163.682 7.61133 163.358 7.44727C163.016 7.27409 162.697 7.09863 162.401 6.9209C162.105 6.74316 161.847 6.5472 161.629 6.33301C161.41 6.11882 161.237 5.87728 161.109 5.6084C160.986 5.33496 160.925 5.01595 160.925 4.65137C160.925 4.20475 161.023 3.81738 161.219 3.48926C161.414 3.15658 161.672 2.88314 161.991 2.66895C162.31 2.45475 162.672 2.29525 163.078 2.19043C163.488 2.08561 163.905 2.0332 164.329 2.0332C165.295 2.0332 165.999 2.14941 166.441 2.38184V3.67383C165.862 3.27279 165.12 3.07227 164.213 3.07227C163.962 3.07227 163.711 3.09961 163.461 3.1543C163.21 3.20443 162.987 3.28874 162.791 3.40723C162.595 3.52572 162.435 3.67839 162.312 3.86523C162.189 4.05208 162.128 4.27995 162.128 4.54883C162.128 4.79948 162.173 5.01595 162.264 5.19824C162.36 5.38053 162.499 5.54688 162.681 5.69727C162.864 5.84766 163.085 5.99349 163.344 6.13477C163.609 6.27604 163.912 6.43099 164.254 6.59961C164.605 6.77279 164.937 6.95508 165.252 7.14648C165.566 7.33789 165.842 7.5498 166.079 7.78223C166.316 8.01465 166.503 8.27214 166.639 8.55469C166.781 8.83724 166.851 9.16081 166.851 9.52539C166.851 10.0085 166.756 10.4186 166.564 10.7559C166.377 11.0885 166.122 11.3597 165.799 11.5693C165.48 11.779 165.11 11.9294 164.691 12.0205C164.272 12.1162 163.83 12.1641 163.365 12.1641C163.21 12.1641 163.019 12.1504 162.791 12.123C162.563 12.1003 162.33 12.0638 162.094 12.0137C161.857 11.9681 161.631 11.9111 161.417 11.8428C161.207 11.7699 161.039 11.6901 160.911 11.6035Z" fill="white"/>
<path d="M47.1211 25.2598H49.5479V28.7314C49.1702 28.8519 48.7861 28.943 48.3955 29.0049C48.0049 29.0667 47.5524 29.0977 47.0381 29.0977C45.9574 29.0977 45.1159 28.777 44.5137 28.1357C43.9115 27.4912 43.6104 26.5895 43.6104 25.4307C43.6104 24.6885 43.7585 24.0391 44.0547 23.4824C44.3542 22.9225 44.7839 22.4961 45.3438 22.2031C45.9036 21.9069 46.5596 21.7588 47.3115 21.7588C48.0732 21.7588 48.7829 21.8988 49.4404 22.1787L49.1182 22.9111C48.4736 22.6377 47.8535 22.501 47.2578 22.501C46.3887 22.501 45.71 22.7598 45.2217 23.2773C44.7334 23.7949 44.4893 24.5127 44.4893 25.4307C44.4893 26.3942 44.7236 27.125 45.1924 27.623C45.6644 28.1211 46.3561 28.3701 47.2676 28.3701C47.7624 28.3701 48.2458 28.3132 48.7178 28.1992V26.002H47.1211V25.2598ZM54.4355 29L54.2744 28.2383H54.2354C53.9684 28.5736 53.7015 28.8014 53.4346 28.9219C53.1709 29.0391 52.8405 29.0977 52.4434 29.0977C51.9128 29.0977 51.4961 28.9609 51.1934 28.6875C50.8939 28.4141 50.7441 28.0251 50.7441 27.5205C50.7441 26.4398 51.6084 25.8734 53.3369 25.8213L54.2451 25.792V25.46C54.2451 25.04 54.154 24.7308 53.9717 24.5322C53.7926 24.3304 53.5046 24.2295 53.1074 24.2295C52.6615 24.2295 52.1569 24.3662 51.5938 24.6396L51.3447 24.0195C51.6084 23.8763 51.8965 23.764 52.209 23.6826C52.5247 23.6012 52.8405 23.5605 53.1562 23.5605C53.7943 23.5605 54.2663 23.7021 54.5723 23.9854C54.8815 24.2686 55.0361 24.7227 55.0361 25.3477V29H54.4355ZM52.6045 28.4287C53.109 28.4287 53.5046 28.2904 53.791 28.0137C54.0807 27.737 54.2256 27.3496 54.2256 26.8516V26.3682L53.415 26.4023C52.7705 26.4251 52.305 26.526 52.0186 26.7051C51.7354 26.8809 51.5938 27.1559 51.5938 27.5303C51.5938 27.8232 51.6816 28.0462 51.8574 28.1992C52.0365 28.3522 52.2855 28.4287 52.6045 28.4287ZM63.5322 29V25.5186C63.5322 25.0921 63.4411 24.7731 63.2588 24.5615C63.0765 24.3467 62.7933 24.2393 62.4092 24.2393C61.9046 24.2393 61.5319 24.3841 61.291 24.6738C61.0501 24.9635 60.9297 25.4095 60.9297 26.0117V29H60.1191V25.5186C60.1191 25.0921 60.028 24.7731 59.8457 24.5615C59.6634 24.3467 59.3786 24.2393 58.9912 24.2393C58.4834 24.2393 58.1107 24.3923 57.873 24.6982C57.6387 25.001 57.5215 25.499 57.5215 26.1924V29H56.7109V23.6484H57.3701L57.502 24.3809H57.541C57.694 24.1204 57.9089 23.917 58.1855 23.7705C58.4655 23.624 58.778 23.5508 59.123 23.5508C59.9596 23.5508 60.5065 23.8535 60.7637 24.459H60.8027C60.9622 24.179 61.1934 23.9577 61.4961 23.7949C61.7988 23.6322 62.1439 23.5508 62.5312 23.5508C63.1367 23.5508 63.5892 23.707 63.8887 24.0195C64.1914 24.3288 64.3428 24.8252 64.3428 25.5088V29H63.5322ZM66.8281 29H66.0176V23.6484H66.8281V29ZM65.9492 22.1982C65.9492 22.0127 65.9948 21.8776 66.0859 21.793C66.1771 21.7051 66.291 21.6611 66.4277 21.6611C66.5579 21.6611 66.6702 21.7051 66.7646 21.793C66.859 21.8809 66.9062 22.016 66.9062 22.1982C66.9062 22.3805 66.859 22.5173 66.7646 22.6084C66.6702 22.6963 66.5579 22.7402 66.4277 22.7402C66.291 22.7402 66.1771 22.6963 66.0859 22.6084C65.9948 22.5173 65.9492 22.3805 65.9492 22.1982ZM70.959 24.2783H69.5967V29H68.7861V24.2783H67.8291V23.9121L68.7861 23.6191V23.3213C68.7861 22.0062 69.3607 21.3486 70.5098 21.3486C70.793 21.3486 71.125 21.4056 71.5059 21.5195L71.2959 22.1689C70.9834 22.068 70.7165 22.0176 70.4951 22.0176C70.1891 22.0176 69.9629 22.1201 69.8164 22.3252C69.6699 22.527 69.5967 22.8525 69.5967 23.3018V23.6484H70.959V24.2783ZM71.0859 23.6484H71.9551L73.127 26.7002C73.3841 27.3968 73.5436 27.8997 73.6055 28.209H73.6445C73.6868 28.043 73.7747 27.7598 73.9082 27.3594C74.0449 26.9557 74.4876 25.7188 75.2363 23.6484H76.1055L73.8057 29.7422C73.5778 30.3444 73.3109 30.7708 73.0049 31.0215C72.7021 31.2754 72.3294 31.4023 71.8867 31.4023C71.6393 31.4023 71.3952 31.3747 71.1543 31.3193V30.6699C71.3333 30.709 71.5335 30.7285 71.7549 30.7285C72.3115 30.7285 72.7087 30.416 72.9463 29.791L73.2441 29.0293L71.0859 23.6484ZM77.7852 29H76.9746V23.6484H77.7852V29ZM76.9062 22.1982C76.9062 22.0127 76.9518 21.8776 77.043 21.793C77.1341 21.7051 77.248 21.6611 77.3848 21.6611C77.515 21.6611 77.6273 21.7051 77.7217 21.793C77.8161 21.8809 77.8633 22.016 77.8633 22.1982C77.8633 22.3805 77.8161 22.5173 77.7217 22.6084C77.6273 22.6963 77.515 22.7402 77.3848 22.7402C77.248 22.7402 77.1341 22.6963 77.043 22.6084C76.9518 22.5173 76.9062 22.3805 76.9062 22.1982ZM83.166 29V25.5381C83.166 25.1019 83.0667 24.7764 82.8682 24.5615C82.6696 24.3467 82.3587 24.2393 81.9355 24.2393C81.3757 24.2393 80.9655 24.3906 80.7051 24.6934C80.4447 24.9961 80.3145 25.4958 80.3145 26.1924V29H79.5039V23.6484H80.1631L80.2949 24.3809H80.334C80.5 24.1172 80.7327 23.9137 81.0322 23.7705C81.3317 23.624 81.6654 23.5508 82.0332 23.5508C82.6777 23.5508 83.1628 23.707 83.4883 24.0195C83.8138 24.3288 83.9766 24.8252 83.9766 25.5088V29H83.166ZM90.0264 23.6484V24.1611L89.0352 24.2783C89.1263 24.3923 89.2077 24.542 89.2793 24.7275C89.3509 24.9098 89.3867 25.1165 89.3867 25.3477C89.3867 25.8717 89.2077 26.29 88.8496 26.6025C88.4915 26.915 88 27.0713 87.375 27.0713C87.2155 27.0713 87.0658 27.0583 86.9258 27.0322C86.5807 27.2145 86.4082 27.444 86.4082 27.7207C86.4082 27.8672 86.4684 27.9762 86.5889 28.0479C86.7093 28.1162 86.916 28.1504 87.209 28.1504H88.1562C88.7357 28.1504 89.18 28.2725 89.4893 28.5166C89.8018 28.7607 89.958 29.1156 89.958 29.5811C89.958 30.1735 89.7204 30.6243 89.2451 30.9336C88.7699 31.2461 88.0765 31.4023 87.165 31.4023C86.4652 31.4023 85.9248 31.2721 85.5439 31.0117C85.1663 30.7513 84.9775 30.3835 84.9775 29.9082C84.9775 29.5827 85.0817 29.3011 85.29 29.0635C85.4984 28.8258 85.7913 28.6647 86.1689 28.5801C86.0322 28.5182 85.9167 28.4222 85.8223 28.292C85.7311 28.1618 85.6855 28.0104 85.6855 27.8379C85.6855 27.6426 85.7376 27.4717 85.8418 27.3252C85.946 27.1787 86.1104 27.0371 86.335 26.9004C86.0583 26.7865 85.832 26.5928 85.6562 26.3193C85.4837 26.0459 85.3975 25.7334 85.3975 25.3818C85.3975 24.7959 85.5732 24.3451 85.9248 24.0293C86.2764 23.7103 86.7744 23.5508 87.4189 23.5508C87.6989 23.5508 87.9512 23.5833 88.1758 23.6484H90.0264ZM85.7588 29.8984C85.7588 30.1882 85.8809 30.4079 86.125 30.5576C86.3691 30.7074 86.7191 30.7822 87.1748 30.7822C87.8551 30.7822 88.3581 30.6797 88.6836 30.4746C89.0124 30.2728 89.1768 29.9977 89.1768 29.6494C89.1768 29.3597 89.0872 29.1579 88.9082 29.0439C88.7292 28.9333 88.3923 28.8779 87.8975 28.8779H86.9258C86.5579 28.8779 86.2715 28.9658 86.0664 29.1416C85.8613 29.3174 85.7588 29.5697 85.7588 29.8984ZM86.1982 25.3623C86.1982 25.7367 86.304 26.0199 86.5156 26.2119C86.7272 26.404 87.0218 26.5 87.3994 26.5C88.1904 26.5 88.5859 26.1159 88.5859 25.3477C88.5859 24.5436 88.1855 24.1416 87.3848 24.1416C87.0039 24.1416 86.7109 24.2441 86.5059 24.4492C86.3008 24.6543 86.1982 24.9587 86.1982 25.3623ZM96.042 29H95.2119V22.5986H92.9512V21.8613H98.3027V22.5986H96.042V29ZM102.922 29V25.5381C102.922 25.1019 102.823 24.7764 102.624 24.5615C102.425 24.3467 102.115 24.2393 101.691 24.2393C101.128 24.2393 100.716 24.3923 100.456 24.6982C100.199 25.0042 100.07 25.5055 100.07 26.2021V29H99.2598V21.4023H100.07V23.7021C100.07 23.9788 100.057 24.2083 100.031 24.3906H100.08C100.24 24.1335 100.466 23.9316 100.759 23.7852C101.055 23.6354 101.392 23.5605 101.77 23.5605C102.424 23.5605 102.914 23.7168 103.239 24.0293C103.568 24.3385 103.732 24.8317 103.732 25.5088V29H102.922ZM107.663 29.0977C106.872 29.0977 106.247 28.8568 105.788 28.375C105.332 27.8932 105.104 27.2243 105.104 26.3682C105.104 25.5055 105.316 24.8203 105.739 24.3125C106.166 23.8047 106.737 23.5508 107.453 23.5508C108.124 23.5508 108.654 23.7721 109.045 24.2148C109.436 24.6543 109.631 25.2354 109.631 25.958V26.4707H105.944C105.961 27.099 106.118 27.5758 106.418 27.9014C106.721 28.2269 107.146 28.3896 107.692 28.3896C108.269 28.3896 108.838 28.2692 109.401 28.0283V28.751C109.115 28.8747 108.843 28.9626 108.586 29.0146C108.332 29.07 108.024 29.0977 107.663 29.0977ZM107.443 24.2295C107.014 24.2295 106.67 24.3695 106.413 24.6494C106.159 24.9294 106.009 25.3167 105.964 25.8115H108.762C108.762 25.3005 108.648 24.9098 108.42 24.6396C108.192 24.3662 107.867 24.2295 107.443 24.2295ZM117.766 27.1006C117.766 27.7288 117.538 28.2188 117.082 28.5703C116.626 28.9219 116.008 29.0977 115.227 29.0977C114.38 29.0977 113.729 28.9886 113.273 28.7705V27.9697C113.566 28.0934 113.885 28.1911 114.23 28.2627C114.576 28.3343 114.917 28.3701 115.256 28.3701C115.809 28.3701 116.226 28.266 116.506 28.0576C116.786 27.846 116.926 27.5531 116.926 27.1787C116.926 26.9313 116.875 26.7295 116.774 26.5732C116.677 26.4137 116.511 26.2673 116.276 26.1338C116.045 26.0003 115.692 25.849 115.217 25.6797C114.553 25.4421 114.077 25.1605 113.791 24.835C113.508 24.5094 113.366 24.0846 113.366 23.5605C113.366 23.0104 113.573 22.5726 113.986 22.2471C114.4 21.9215 114.947 21.7588 115.627 21.7588C116.337 21.7588 116.989 21.889 117.585 22.1494L117.326 22.8721C116.737 22.6247 116.164 22.501 115.607 22.501C115.168 22.501 114.825 22.5954 114.577 22.7842C114.33 22.973 114.206 23.235 114.206 23.5703C114.206 23.8177 114.252 24.0212 114.343 24.1807C114.434 24.3369 114.587 24.4818 114.802 24.6152C115.02 24.7454 115.352 24.8903 115.798 25.0498C116.547 25.3167 117.061 25.6032 117.341 25.9092C117.624 26.2152 117.766 26.6123 117.766 27.1006ZM120.832 28.4287C120.975 28.4287 121.114 28.4189 121.247 28.3994C121.381 28.3766 121.486 28.3538 121.564 28.3311V28.9512C121.477 28.9935 121.346 29.0277 121.174 29.0537C121.005 29.083 120.852 29.0977 120.715 29.0977C119.68 29.0977 119.162 28.5524 119.162 27.4619V24.2783H118.396V23.8877L119.162 23.5508L119.504 22.4082H119.973V23.6484H121.525V24.2783H119.973V27.4277C119.973 27.75 120.049 27.9974 120.202 28.1699C120.355 28.3424 120.565 28.4287 120.832 28.4287ZM125.93 29L125.769 28.2383H125.729C125.463 28.5736 125.196 28.8014 124.929 28.9219C124.665 29.0391 124.335 29.0977 123.938 29.0977C123.407 29.0977 122.99 28.9609 122.688 28.6875C122.388 28.4141 122.238 28.0251 122.238 27.5205C122.238 26.4398 123.103 25.8734 124.831 25.8213L125.739 25.792V25.46C125.739 25.04 125.648 24.7308 125.466 24.5322C125.287 24.3304 124.999 24.2295 124.602 24.2295C124.156 24.2295 123.651 24.3662 123.088 24.6396L122.839 24.0195C123.103 23.8763 123.391 23.764 123.703 23.6826C124.019 23.6012 124.335 23.5605 124.65 23.5605C125.288 23.5605 125.76 23.7021 126.066 23.9854C126.376 24.2686 126.53 24.7227 126.53 25.3477V29H125.93ZM124.099 28.4287C124.603 28.4287 124.999 28.2904 125.285 28.0137C125.575 27.737 125.72 27.3496 125.72 26.8516V26.3682L124.909 26.4023C124.265 26.4251 123.799 26.526 123.513 26.7051C123.229 26.8809 123.088 27.1559 123.088 27.5303C123.088 27.8232 123.176 28.0462 123.352 28.1992C123.531 28.3522 123.78 28.4287 124.099 28.4287ZM129.006 26.2607C129.146 26.0622 129.359 25.8018 129.646 25.4795L131.374 23.6484H132.336L130.168 25.9287L132.487 29H131.506L129.616 26.4707L129.006 26.998V29H128.205V21.4023H129.006V25.4307C129.006 25.6097 128.993 25.8864 128.967 26.2607H129.006ZM134.27 29H133.459V23.6484H134.27V29ZM133.391 22.1982C133.391 22.0127 133.436 21.8776 133.527 21.793C133.618 21.7051 133.732 21.6611 133.869 21.6611C133.999 21.6611 134.112 21.7051 134.206 21.793C134.3 21.8809 134.348 22.016 134.348 22.1982C134.348 22.3805 134.3 22.5173 134.206 22.6084C134.112 22.6963 133.999 22.7402 133.869 22.7402C133.732 22.7402 133.618 22.6963 133.527 22.6084C133.436 22.5173 133.391 22.3805 133.391 22.1982ZM139.65 29V25.5381C139.65 25.1019 139.551 24.7764 139.353 24.5615C139.154 24.3467 138.843 24.2393 138.42 24.2393C137.86 24.2393 137.45 24.3906 137.189 24.6934C136.929 24.9961 136.799 25.4958 136.799 26.1924V29H135.988V23.6484H136.647L136.779 24.3809H136.818C136.984 24.1172 137.217 23.9137 137.517 23.7705C137.816 23.624 138.15 23.5508 138.518 23.5508C139.162 23.5508 139.647 23.707 139.973 24.0195C140.298 24.3288 140.461 24.8252 140.461 25.5088V29H139.65ZM146.511 23.6484V24.1611L145.52 24.2783C145.611 24.3923 145.692 24.542 145.764 24.7275C145.835 24.9098 145.871 25.1165 145.871 25.3477C145.871 25.8717 145.692 26.29 145.334 26.6025C144.976 26.915 144.484 27.0713 143.859 27.0713C143.7 27.0713 143.55 27.0583 143.41 27.0322C143.065 27.2145 142.893 27.444 142.893 27.7207C142.893 27.8672 142.953 27.9762 143.073 28.0479C143.194 28.1162 143.4 28.1504 143.693 28.1504H144.641C145.22 28.1504 145.664 28.2725 145.974 28.5166C146.286 28.7607 146.442 29.1156 146.442 29.5811C146.442 30.1735 146.205 30.6243 145.729 30.9336C145.254 31.2461 144.561 31.4023 143.649 31.4023C142.95 31.4023 142.409 31.2721 142.028 31.0117C141.651 30.7513 141.462 30.3835 141.462 29.9082C141.462 29.5827 141.566 29.3011 141.774 29.0635C141.983 28.8258 142.276 28.6647 142.653 28.5801C142.517 28.5182 142.401 28.4222 142.307 28.292C142.215 28.1618 142.17 28.0104 142.17 27.8379C142.17 27.6426 142.222 27.4717 142.326 27.3252C142.43 27.1787 142.595 27.0371 142.819 26.9004C142.543 26.7865 142.316 26.5928 142.141 26.3193C141.968 26.0459 141.882 25.7334 141.882 25.3818C141.882 24.7959 142.058 24.3451 142.409 24.0293C142.761 23.7103 143.259 23.5508 143.903 23.5508C144.183 23.5508 144.436 23.5833 144.66 23.6484H146.511ZM142.243 29.8984C142.243 30.1882 142.365 30.4079 142.609 30.5576C142.854 30.7074 143.203 30.7822 143.659 30.7822C144.34 30.7822 144.842 30.6797 145.168 30.4746C145.497 30.2728 145.661 29.9977 145.661 29.6494C145.661 29.3597 145.572 29.1579 145.393 29.0439C145.214 28.9333 144.877 28.8779 144.382 28.8779H143.41C143.042 28.8779 142.756 28.9658 142.551 29.1416C142.346 29.3174 142.243 29.5697 142.243 29.8984ZM142.683 25.3623C142.683 25.7367 142.788 26.0199 143 26.2119C143.212 26.404 143.506 26.5 143.884 26.5C144.675 26.5 145.07 26.1159 145.07 25.3477C145.07 24.5436 144.67 24.1416 143.869 24.1416C143.488 24.1416 143.195 24.2441 142.99 24.4492C142.785 24.6543 142.683 24.9587 142.683 25.3623ZM48.5078 37.9414C48.5078 38.6641 48.2604 39.2207 47.7656 39.6113C47.2741 39.9987 46.5693 40.1924 45.6514 40.1924H44.8115V43H43.9814V35.8613H45.832C47.6159 35.8613 48.5078 36.5547 48.5078 37.9414ZM44.8115 39.4795H45.5586C46.2943 39.4795 46.8265 39.3607 47.1553 39.123C47.484 38.8854 47.6484 38.5046 47.6484 37.9805C47.6484 37.5085 47.4938 37.1569 47.1846 36.9258C46.8753 36.6947 46.3936 36.5791 45.7393 36.5791H44.8115V39.4795ZM52.3262 37.5508C52.5638 37.5508 52.777 37.5703 52.9658 37.6094L52.8535 38.3613C52.6322 38.3125 52.4368 38.2881 52.2676 38.2881C51.8346 38.2881 51.4635 38.4639 51.1543 38.8154C50.8483 39.167 50.6953 39.6048 50.6953 40.1289V43H49.8848V37.6484H50.5537L50.6465 38.6396H50.6855C50.8841 38.2913 51.1234 38.0228 51.4033 37.834C51.6833 37.6452 51.9909 37.5508 52.3262 37.5508ZM58.5859 40.3193C58.5859 41.1917 58.3662 41.8737 57.9268 42.3652C57.4873 42.8535 56.8802 43.0977 56.1055 43.0977C55.627 43.0977 55.2021 42.9854 54.8311 42.7607C54.46 42.5361 54.1735 42.2139 53.9717 41.7939C53.7699 41.374 53.6689 40.8825 53.6689 40.3193C53.6689 39.4469 53.887 38.7682 54.3232 38.2832C54.7594 37.7949 55.3649 37.5508 56.1396 37.5508C56.8883 37.5508 57.4824 37.7998 57.9219 38.2979C58.3646 38.7959 58.5859 39.4697 58.5859 40.3193ZM54.5088 40.3193C54.5088 41.0029 54.6455 41.5238 54.9189 41.8818C55.1924 42.2399 55.5944 42.4189 56.125 42.4189C56.6556 42.4189 57.0576 42.2415 57.3311 41.8867C57.6077 41.5286 57.7461 41.0062 57.7461 40.3193C57.7461 39.639 57.6077 39.123 57.3311 38.7715C57.0576 38.4167 56.6523 38.2393 56.1152 38.2393C55.5846 38.2393 55.1842 38.4134 54.9141 38.7617C54.6439 39.11 54.5088 39.6292 54.5088 40.3193ZM62.1504 43.0977C61.3757 43.0977 60.7751 42.86 60.3486 42.3848C59.9255 41.9062 59.7139 41.2308 59.7139 40.3584C59.7139 39.4632 59.9287 38.7715 60.3584 38.2832C60.7913 37.7949 61.4066 37.5508 62.2041 37.5508C62.4613 37.5508 62.7184 37.5785 62.9756 37.6338C63.2327 37.6891 63.4346 37.7542 63.5811 37.8291L63.332 38.5176C63.153 38.446 62.9577 38.3874 62.7461 38.3418C62.5345 38.293 62.3473 38.2686 62.1846 38.2686C61.0973 38.2686 60.5537 38.9619 60.5537 40.3486C60.5537 41.0062 60.6855 41.5107 60.9492 41.8623C61.2161 42.2139 61.61 42.3896 62.1309 42.3896C62.5768 42.3896 63.0342 42.2936 63.5029 42.1016V42.8193C63.1449 43.0049 62.694 43.0977 62.1504 43.0977ZM67.0381 43.0977C66.2471 43.0977 65.6221 42.8568 65.1631 42.375C64.7074 41.8932 64.4795 41.2243 64.4795 40.3682C64.4795 39.5055 64.6911 38.8203 65.1143 38.3125C65.5407 37.8047 66.112 37.5508 66.8281 37.5508C67.4987 37.5508 68.0293 37.7721 68.4199 38.2148C68.8105 38.6543 69.0059 39.2354 69.0059 39.958V40.4707H65.3193C65.3356 41.099 65.4935 41.5758 65.793 41.9014C66.0957 42.2269 66.5205 42.3896 67.0674 42.3896C67.6436 42.3896 68.2132 42.2692 68.7764 42.0283V42.751C68.4899 42.8747 68.2181 42.9626 67.9609 43.0146C67.707 43.07 67.3994 43.0977 67.0381 43.0977ZM66.8184 38.2295C66.3887 38.2295 66.0452 38.3695 65.7881 38.6494C65.5342 38.9294 65.3844 39.3167 65.3389 39.8115H68.1367C68.1367 39.3005 68.0228 38.9098 67.7949 38.6396C67.5671 38.3662 67.2415 38.2295 66.8184 38.2295ZM73.8447 41.54C73.8447 42.0381 73.6592 42.4222 73.2881 42.6924C72.917 42.9626 72.3962 43.0977 71.7256 43.0977C71.016 43.0977 70.4626 42.9854 70.0654 42.7607V42.0088C70.3226 42.139 70.5977 42.2415 70.8906 42.3164C71.1868 42.3913 71.4717 42.4287 71.7451 42.4287C72.1683 42.4287 72.4938 42.362 72.7217 42.2285C72.9495 42.0918 73.0635 41.8851 73.0635 41.6084C73.0635 41.4001 72.9723 41.2227 72.79 41.0762C72.611 40.9264 72.2594 40.7507 71.7354 40.5488C71.2373 40.3633 70.8825 40.2021 70.6709 40.0654C70.4626 39.9255 70.3063 39.7676 70.2021 39.5918C70.1012 39.416 70.0508 39.2061 70.0508 38.9619C70.0508 38.5257 70.2282 38.1823 70.583 37.9316C70.9378 37.6777 71.4245 37.5508 72.043 37.5508C72.6191 37.5508 73.1823 37.668 73.7324 37.9023L73.4443 38.5615C72.9072 38.3402 72.4206 38.2295 71.9844 38.2295C71.6003 38.2295 71.3105 38.2897 71.1152 38.4102C70.9199 38.5306 70.8223 38.6966 70.8223 38.9082C70.8223 39.0514 70.8581 39.1735 70.9297 39.2744C71.0046 39.3753 71.1234 39.4714 71.2861 39.5625C71.4489 39.6536 71.7614 39.7855 72.2236 39.958C72.8584 40.1891 73.2865 40.4219 73.5078 40.6562C73.7324 40.8906 73.8447 41.1852 73.8447 41.54ZM78.6201 41.54C78.6201 42.0381 78.4346 42.4222 78.0635 42.6924C77.6924 42.9626 77.1715 43.0977 76.501 43.0977C75.7913 43.0977 75.238 42.9854 74.8408 42.7607V42.0088C75.098 42.139 75.373 42.2415 75.666 42.3164C75.9622 42.3913 76.2471 42.4287 76.5205 42.4287C76.9437 42.4287 77.2692 42.362 77.4971 42.2285C77.7249 42.0918 77.8389 41.8851 77.8389 41.6084C77.8389 41.4001 77.7477 41.2227 77.5654 41.0762C77.3864 40.9264 77.0348 40.7507 76.5107 40.5488C76.0127 40.3633 75.6579 40.2021 75.4463 40.0654C75.238 39.9255 75.0817 39.7676 74.9775 39.5918C74.8766 39.416 74.8262 39.2061 74.8262 38.9619C74.8262 38.5257 75.0036 38.1823 75.3584 37.9316C75.7132 37.6777 76.1999 37.5508 76.8184 37.5508C77.3945 37.5508 77.9577 37.668 78.5078 37.9023L78.2197 38.5615C77.6826 38.3402 77.196 38.2295 76.7598 38.2295C76.3757 38.2295 76.0859 38.2897 75.8906 38.4102C75.6953 38.5306 75.5977 38.6966 75.5977 38.9082C75.5977 39.0514 75.6335 39.1735 75.7051 39.2744C75.7799 39.3753 75.8988 39.4714 76.0615 39.5625C76.2243 39.6536 76.5368 39.7855 76.999 39.958C77.6338 40.1891 78.0618 40.4219 78.2832 40.6562C78.5078 40.8906 78.6201 41.1852 78.6201 41.54ZM86.9111 43L85.9297 39.8604C85.8678 39.6683 85.7523 39.2321 85.583 38.5518H85.5439C85.4137 39.1214 85.2998 39.5609 85.2021 39.8701L84.1914 43H83.2539L81.7939 37.6484H82.6436C82.9886 38.9928 83.2507 40.0166 83.4297 40.7197C83.612 41.4229 83.7161 41.8965 83.7422 42.1406H83.7812C83.8171 41.9551 83.874 41.7158 83.9521 41.4229C84.0335 41.1266 84.1035 40.8923 84.1621 40.7197L85.1436 37.6484H86.0225L86.9795 40.7197C87.1618 41.2796 87.2855 41.75 87.3506 42.1309H87.3896C87.4027 42.0137 87.4368 41.833 87.4922 41.5889C87.5508 41.3447 87.891 40.0312 88.5127 37.6484H89.3525L87.873 43H86.9111ZM91.1348 43H90.3242V37.6484H91.1348V43ZM90.2559 36.1982C90.2559 36.0127 90.3014 35.8776 90.3926 35.793C90.4837 35.7051 90.5977 35.6611 90.7344 35.6611C90.8646 35.6611 90.9769 35.7051 91.0713 35.793C91.1657 35.8809 91.2129 36.016 91.2129 36.1982C91.2129 36.3805 91.1657 36.5173 91.0713 36.6084C90.9769 36.6963 90.8646 36.7402 90.7344 36.7402C90.5977 36.7402 90.4837 36.6963 90.3926 36.6084C90.3014 36.5173 90.2559 36.3805 90.2559 36.1982ZM94.582 42.4287C94.7253 42.4287 94.8636 42.4189 94.9971 42.3994C95.1305 42.3766 95.2363 42.3538 95.3145 42.3311V42.9512C95.2266 42.9935 95.0964 43.0277 94.9238 43.0537C94.7546 43.083 94.6016 43.0977 94.4648 43.0977C93.4297 43.0977 92.9121 42.5524 92.9121 41.4619V38.2783H92.1455V37.8877L92.9121 37.5508L93.2539 36.4082H93.7227V37.6484H95.2754V38.2783H93.7227V41.4277C93.7227 41.75 93.7992 41.9974 93.9521 42.1699C94.1051 42.3424 94.3151 42.4287 94.582 42.4287ZM100.051 43V39.5381C100.051 39.1019 99.9515 38.7764 99.7529 38.5615C99.5544 38.3467 99.2435 38.2393 98.8203 38.2393C98.2572 38.2393 97.8454 38.3923 97.585 38.6982C97.3278 39.0042 97.1992 39.5055 97.1992 40.2021V43H96.3887V35.4023H97.1992V37.7021C97.1992 37.9788 97.1862 38.2083 97.1602 38.3906H97.209C97.3685 38.1335 97.5947 37.9316 97.8877 37.7852C98.1839 37.6354 98.5208 37.5605 98.8984 37.5605C99.5527 37.5605 100.043 37.7168 100.368 38.0293C100.697 38.3385 100.861 38.8317 100.861 39.5088V43H100.051ZM110.827 43H109.88L105.979 37.0088H105.939C105.992 37.7119 106.018 38.3564 106.018 38.9424V43H105.251V35.8613H106.188L110.08 41.8281H110.119C110.113 41.7402 110.098 41.4587 110.075 40.9834C110.052 40.5049 110.044 40.1631 110.051 39.958V35.8613H110.827V43ZM113.62 43H112.79V35.8613H116.77V36.5986H113.62V39.2109H116.579V39.9482H113.62V43ZM120.153 43H119.323V36.5986H117.062V35.8613H122.414V36.5986H120.153V43Z" fill="white"/>
</svg>
